M48
;GenerationSoftware,Autodesk,EAGLE,9.6.2*%
;CreationDate,2021-03-09T17:42:45Z*%
FMAT,2
ICI,OFF
METRIC,TZ,000.000
T3C0.300
T2C1.016
T1C3.200
%
G90
M71
T1
X2540Y2540
X2540Y33020
X33020Y33020
X33020Y2540
T2
X5080Y7620
X5080Y10160
X5080Y12700
X5080Y15240
X5080Y17780
X5080Y20320
X5080Y22860
X5080Y25400
X5080Y27940
T3
X27940Y15240
X15240Y7620
X10160Y33020
X29210Y22860
X12700Y12700
X11430Y15240
X11430Y29210
X29170Y12740
M30