G04 EAGLE Gerber RS-274X export*
G75*
%MOMM*%
%FSLAX34Y34*%
%LPD*%
%INBottom Copper*%
%IPPOS*%
%AMOC8*
5,1,8,0,0,1.08239X$1,22.5*%
G01*
%ADD10C,0.254000*%
%ADD11C,0.203200*%
%ADD12C,0.152400*%
%ADD13C,0.177800*%
%ADD14R,1.500000X0.300000*%
%ADD15R,0.300000X1.500000*%
%ADD16C,0.350000*%
%ADD17R,1.500000X0.200000*%
%ADD18R,0.200000X1.500000*%
%ADD19R,1.270000X0.558800*%
%ADD20R,0.558800X1.270000*%
%ADD21R,1.143000X0.254000*%
%ADD22R,0.254000X1.143000*%
%ADD23R,0.800000X0.350000*%
%ADD24C,0.450000*%
%ADD25R,0.228600X0.025400*%
%ADD26R,0.635000X0.025400*%
%ADD27R,0.381000X0.025400*%
%ADD28R,1.117600X0.025400*%
%ADD29R,1.066800X0.025400*%
%ADD30R,0.965200X0.025400*%
%ADD31R,1.143000X0.025400*%
%ADD32R,1.092200X0.025400*%
%ADD33R,1.041400X0.025400*%
%ADD34R,1.016000X0.025400*%
%ADD35R,0.457200X0.025400*%
%ADD36R,1.295400X0.025400*%
%ADD37R,1.168400X0.025400*%
%ADD38R,1.219200X0.025400*%
%ADD39R,1.193800X0.025400*%
%ADD40R,0.533400X0.025400*%
%ADD41R,1.447800X0.025400*%
%ADD42R,1.422400X0.025400*%
%ADD43R,1.320800X0.025400*%
%ADD44R,0.584200X0.025400*%
%ADD45R,1.524000X0.025400*%
%ADD46R,1.473200X0.025400*%
%ADD47R,0.660400X0.025400*%
%ADD48R,1.625600X0.025400*%
%ADD49R,1.498600X0.025400*%
%ADD50R,1.600200X0.025400*%
%ADD51R,1.574800X0.025400*%
%ADD52R,0.711200X0.025400*%
%ADD53R,1.701800X0.025400*%
%ADD54R,0.787400X0.025400*%
%ADD55R,1.778000X0.025400*%
%ADD56R,1.676400X0.025400*%
%ADD57R,1.651000X0.025400*%
%ADD58R,0.812800X0.025400*%
%ADD59R,1.854200X0.025400*%
%ADD60R,1.727200X0.025400*%
%ADD61R,1.828800X0.025400*%
%ADD62R,0.863600X0.025400*%
%ADD63R,1.905000X0.025400*%
%ADD64R,1.803400X0.025400*%
%ADD65R,0.914400X0.025400*%
%ADD66R,1.981200X0.025400*%
%ADD67R,1.955800X0.025400*%
%ADD68R,0.939800X0.025400*%
%ADD69R,2.006600X0.025400*%
%ADD70R,0.990600X0.025400*%
%ADD71R,2.057400X0.025400*%
%ADD72R,2.082800X0.025400*%
%ADD73R,1.752600X0.025400*%
%ADD74R,2.159000X0.025400*%
%ADD75R,2.133600X0.025400*%
%ADD76R,2.184400X0.025400*%
%ADD77R,2.108200X0.025400*%
%ADD78R,2.235200X0.025400*%
%ADD79R,3.327400X0.025400*%
%ADD80R,2.209800X0.025400*%
%ADD81R,3.352800X0.025400*%
%ADD82R,1.244600X0.025400*%
%ADD83R,1.346200X0.025400*%
%ADD84R,3.378200X0.025400*%
%ADD85R,1.397000X0.025400*%
%ADD86R,3.403600X0.025400*%
%ADD87R,1.549400X0.025400*%
%ADD88R,3.429000X0.025400*%
%ADD89R,1.371600X0.025400*%
%ADD90R,1.270000X0.025400*%
%ADD91R,1.879600X0.025400*%
%ADD92R,0.177800X0.025400*%
%ADD93R,1.930400X0.025400*%
%ADD94R,0.355600X0.025400*%
%ADD95R,0.508000X0.025400*%
%ADD96R,0.609600X0.025400*%
%ADD97R,2.260600X0.025400*%
%ADD98R,2.286000X0.025400*%
%ADD99R,2.336800X0.025400*%
%ADD100R,2.362200X0.025400*%
%ADD101R,2.387600X0.025400*%
%ADD102R,2.413000X0.025400*%
%ADD103R,2.463800X0.025400*%
%ADD104R,2.489200X0.025400*%
%ADD105R,2.514600X0.025400*%
%ADD106R,2.540000X0.025400*%
%ADD107R,2.565400X0.025400*%
%ADD108R,2.590800X0.025400*%
%ADD109R,2.616200X0.025400*%
%ADD110R,2.641600X0.025400*%
%ADD111R,2.667000X0.025400*%
%ADD112R,2.692400X0.025400*%
%ADD113R,2.438400X0.025400*%
%ADD114R,2.717800X0.025400*%
%ADD115R,2.743200X0.025400*%
%ADD116R,2.768600X0.025400*%
%ADD117R,2.794000X0.025400*%
%ADD118R,2.819400X0.025400*%
%ADD119R,3.302000X0.025400*%
%ADD120R,2.844800X0.025400*%
%ADD121R,2.870200X0.025400*%
%ADD122R,3.276600X0.025400*%
%ADD123R,2.895600X0.025400*%
%ADD124R,3.251200X0.025400*%
%ADD125R,2.921000X0.025400*%
%ADD126R,2.946400X0.025400*%
%ADD127R,3.225800X0.025400*%
%ADD128R,2.971800X0.025400*%
%ADD129R,3.200400X0.025400*%
%ADD130R,3.175000X0.025400*%
%ADD131R,3.022600X0.025400*%
%ADD132R,3.149600X0.025400*%
%ADD133R,3.048000X0.025400*%
%ADD134R,2.997200X0.025400*%
%ADD135R,3.124200X0.025400*%
%ADD136R,3.073400X0.025400*%
%ADD137R,3.098800X0.025400*%
%ADD138R,0.762000X0.025400*%
%ADD139R,6.553200X0.025400*%
%ADD140R,6.527800X0.025400*%
%ADD141R,6.502400X0.025400*%
%ADD142R,6.477000X0.025400*%
%ADD143R,6.451600X0.025400*%
%ADD144R,6.426200X0.025400*%
%ADD145R,6.400800X0.025400*%
%ADD146R,6.375400X0.025400*%
%ADD147R,4.470400X0.025400*%
%ADD148R,4.419600X0.025400*%
%ADD149R,4.368800X0.025400*%
%ADD150R,4.318000X0.025400*%
%ADD151R,4.292600X0.025400*%
%ADD152R,4.241800X0.025400*%
%ADD153R,4.216400X0.025400*%
%ADD154R,4.191000X0.025400*%
%ADD155R,4.140200X0.025400*%
%ADD156R,4.114800X0.025400*%
%ADD157R,0.889000X0.025400*%
%ADD158R,4.089400X0.025400*%
%ADD159R,0.838200X0.025400*%
%ADD160R,4.064000X0.025400*%
%ADD161R,4.038600X0.025400*%
%ADD162R,3.987800X0.025400*%
%ADD163R,0.685800X0.025400*%
%ADD164R,2.032000X0.025400*%
%ADD165R,0.482600X0.025400*%
%ADD166R,0.736600X0.025400*%
%ADD167R,0.558800X0.025400*%
%ADD168R,3.479800X0.025400*%
%ADD169R,3.556000X0.025400*%
%ADD170R,3.632200X0.025400*%
%ADD171R,3.683000X0.025400*%
%ADD172R,3.759200X0.025400*%
%ADD173R,3.860800X0.025400*%
%ADD174R,4.622800X0.025400*%
%ADD175R,4.648200X0.025400*%
%ADD176R,4.724400X0.025400*%
%ADD177R,4.775200X0.025400*%
%ADD178R,4.826000X0.025400*%
%ADD179R,6.985000X0.025400*%
%ADD180R,7.188200X0.025400*%
%ADD181R,7.315200X0.025400*%
%ADD182R,7.442200X0.025400*%
%ADD183R,7.569200X0.025400*%
%ADD184R,7.645400X0.025400*%
%ADD185R,7.721600X0.025400*%
%ADD186R,7.823200X0.025400*%
%ADD187R,7.924800X0.025400*%
%ADD188R,8.001000X0.025400*%
%ADD189R,3.505200X0.025400*%
%ADD190R,3.733800X0.025400*%
%ADD191R,3.911600X0.025400*%
%ADD192R,6.273800X0.025400*%
%ADD193R,5.511800X0.025400*%
%ADD194R,2.311400X0.025400*%
%ADD195R,5.486400X0.025400*%
%ADD196R,5.461000X0.025400*%
%ADD197R,5.435600X0.025400*%
%ADD198R,5.410200X0.025400*%
%ADD199R,5.384800X0.025400*%
%ADD200R,5.359400X0.025400*%
%ADD201R,5.308600X0.025400*%
%ADD202R,5.257800X0.025400*%
%ADD203R,4.267200X0.025400*%
%ADD204R,5.232400X0.025400*%
%ADD205R,5.207000X0.025400*%
%ADD206R,5.156200X0.025400*%
%ADD207R,4.343400X0.025400*%
%ADD208R,5.105400X0.025400*%
%ADD209R,5.054600X0.025400*%
%ADD210R,5.003800X0.025400*%
%ADD211R,4.394200X0.025400*%
%ADD212R,4.953000X0.025400*%
%ADD213R,4.876800X0.025400*%
%ADD214R,4.673600X0.025400*%
%ADD215R,4.495800X0.025400*%
%ADD216R,4.597400X0.025400*%
%ADD217R,4.521200X0.025400*%
%ADD218R,4.546600X0.025400*%
%ADD219R,4.699000X0.025400*%
%ADD220R,4.800600X0.025400*%
%ADD221R,4.851400X0.025400*%
%ADD222R,4.927600X0.025400*%
%ADD223R,4.978400X0.025400*%
%ADD224R,5.080000X0.025400*%
%ADD225R,4.013200X0.025400*%
%ADD226R,3.962400X0.025400*%
%ADD227R,3.937000X0.025400*%
%ADD228R,3.886200X0.025400*%
%ADD229R,3.835400X0.025400*%
%ADD230R,3.810000X0.025400*%
%ADD231R,3.784600X0.025400*%
%ADD232R,3.708400X0.025400*%
%ADD233R,3.606800X0.025400*%
%ADD234R,3.454400X0.025400*%
%ADD235R,0.254000X0.025400*%

G36*
X1220558Y19115D02*
X1220558Y19115D01*
X1220557Y19116D01*
X1220558Y19117D01*
X1220558Y22832D01*
X1221623Y23896D01*
X1221623Y23897D01*
X1221624Y23897D01*
X1221858Y24189D01*
X1221918Y24196D01*
X1221922Y24200D01*
X1221926Y24199D01*
X1221968Y24242D01*
X1222343Y24242D01*
X1222344Y24243D01*
X1222344Y24242D01*
X1226518Y24696D01*
X1226522Y24700D01*
X1226526Y24699D01*
X1227154Y25328D01*
X1227155Y25332D01*
X1227157Y25335D01*
X1227157Y25336D01*
X1227158Y25337D01*
X1227158Y26863D01*
X1227154Y26868D01*
X1227154Y26872D01*
X1226772Y27254D01*
X1226766Y27255D01*
X1226763Y27258D01*
X1223637Y27258D01*
X1223632Y27254D01*
X1223628Y27254D01*
X1222132Y25758D01*
X1221268Y25758D01*
X1220658Y26368D01*
X1220658Y27232D01*
X1222768Y29342D01*
X1227632Y29342D01*
X1229242Y27732D01*
X1229242Y24468D01*
X1227777Y23004D01*
X1227777Y23003D01*
X1227776Y23003D01*
X1227542Y22711D01*
X1227482Y22704D01*
X1227478Y22700D01*
X1227474Y22701D01*
X1227432Y22658D01*
X1227057Y22658D01*
X1227056Y22657D01*
X1227056Y22658D01*
X1222882Y22204D01*
X1222878Y22200D01*
X1222874Y22201D01*
X1222646Y21972D01*
X1222645Y21966D01*
X1222642Y21963D01*
X1222642Y19117D01*
X1222653Y19105D01*
X1222653Y19106D01*
X1222654Y19105D01*
X1227246Y19105D01*
X1227258Y19115D01*
X1227257Y19116D01*
X1227258Y19117D01*
X1227258Y20352D01*
X1227868Y20962D01*
X1228732Y20962D01*
X1229342Y20352D01*
X1229342Y19117D01*
X1229353Y19105D01*
X1229353Y19106D01*
X1229354Y19105D01*
X1238806Y19105D01*
X1238818Y19115D01*
X1238817Y19116D01*
X1238818Y19117D01*
X1238818Y22566D01*
X1238807Y22578D01*
X1238807Y22577D01*
X1238806Y22578D01*
X1234228Y22578D01*
X1233618Y23188D01*
X1233618Y24052D01*
X1234228Y24662D01*
X1238806Y24662D01*
X1238818Y24673D01*
X1238817Y24673D01*
X1238818Y24674D01*
X1238818Y27266D01*
X1238807Y27278D01*
X1238807Y27277D01*
X1238806Y27278D01*
X1233228Y27278D01*
X1232618Y27888D01*
X1232618Y28752D01*
X1233228Y29362D01*
X1240292Y29362D01*
X1240902Y28752D01*
X1240902Y19117D01*
X1240913Y19105D01*
X1240913Y19106D01*
X1240914Y19105D01*
X1245506Y19105D01*
X1245518Y19115D01*
X1245517Y19116D01*
X1245518Y19117D01*
X1245518Y28752D01*
X1246128Y29362D01*
X1246992Y29362D01*
X1247602Y28752D01*
X1247602Y19117D01*
X1247613Y19105D01*
X1247613Y19106D01*
X1247614Y19105D01*
X1252106Y19105D01*
X1252118Y19115D01*
X1252117Y19116D01*
X1252118Y19117D01*
X1252118Y21752D01*
X1253478Y23112D01*
X1253479Y23127D01*
X1253478Y23127D01*
X1253478Y23128D01*
X1252018Y24588D01*
X1252018Y27352D01*
X1253928Y29262D01*
X1260092Y29262D01*
X1260702Y28652D01*
X1260702Y19117D01*
X1260713Y19105D01*
X1260713Y19106D01*
X1260714Y19105D01*
X1267506Y19105D01*
X1267518Y19115D01*
X1267517Y19116D01*
X1267518Y19117D01*
X1267518Y27266D01*
X1267507Y27278D01*
X1267507Y27277D01*
X1267506Y27278D01*
X1264628Y27278D01*
X1264018Y27888D01*
X1264018Y28752D01*
X1264628Y29362D01*
X1272892Y29362D01*
X1273502Y28752D01*
X1273502Y27888D01*
X1272892Y27278D01*
X1269614Y27278D01*
X1269602Y27267D01*
X1269603Y27267D01*
X1269602Y27266D01*
X1269602Y19117D01*
X1269613Y19105D01*
X1269613Y19106D01*
X1269614Y19105D01*
X1276206Y19105D01*
X1276218Y19115D01*
X1276217Y19116D01*
X1276218Y19117D01*
X1276218Y22752D01*
X1277283Y23816D01*
X1277283Y23817D01*
X1277284Y23817D01*
X1277518Y24109D01*
X1277578Y24116D01*
X1277582Y24120D01*
X1277586Y24119D01*
X1277628Y24162D01*
X1278003Y24162D01*
X1278004Y24163D01*
X1278004Y24162D01*
X1282178Y24616D01*
X1282182Y24620D01*
X1282186Y24619D01*
X1282814Y25248D01*
X1282815Y25254D01*
X1282818Y25257D01*
X1282818Y26783D01*
X1282814Y26788D01*
X1282814Y26792D01*
X1282432Y27174D01*
X1282426Y27175D01*
X1282423Y27178D01*
X1279297Y27178D01*
X1279292Y27174D01*
X1279288Y27174D01*
X1277792Y25678D01*
X1276928Y25678D01*
X1276318Y26288D01*
X1276318Y27152D01*
X1278428Y29262D01*
X1283292Y29262D01*
X1284902Y27652D01*
X1284902Y24388D01*
X1283437Y22924D01*
X1283437Y22923D01*
X1283436Y22923D01*
X1283202Y22631D01*
X1283142Y22624D01*
X1283138Y22620D01*
X1283134Y22621D01*
X1283092Y22578D01*
X1282717Y22578D01*
X1282716Y22577D01*
X1282716Y22578D01*
X1278542Y22124D01*
X1278538Y22120D01*
X1278534Y22121D01*
X1278306Y21892D01*
X1278305Y21888D01*
X1278305Y21886D01*
X1278302Y21883D01*
X1278302Y19117D01*
X1278313Y19105D01*
X1278313Y19106D01*
X1278314Y19105D01*
X1282906Y19105D01*
X1282918Y19115D01*
X1282917Y19116D01*
X1282918Y19117D01*
X1282918Y20352D01*
X1283528Y20962D01*
X1284392Y20962D01*
X1285002Y20352D01*
X1285002Y19117D01*
X1285013Y19105D01*
X1285013Y19106D01*
X1285014Y19105D01*
X1290273Y19105D01*
X1290276Y19108D01*
X1290280Y19107D01*
X1290280Y19112D01*
X1290284Y19115D01*
X1290281Y19120D01*
X1290281Y19125D01*
X1288918Y20488D01*
X1288918Y28752D01*
X1289528Y29362D01*
X1290392Y29362D01*
X1291002Y28752D01*
X1291002Y21357D01*
X1291006Y21352D01*
X1291006Y21348D01*
X1293245Y19108D01*
X1293251Y19108D01*
X1293254Y19105D01*
X1293766Y19105D01*
X1293770Y19109D01*
X1293775Y19108D01*
X1296014Y21348D01*
X1296015Y21354D01*
X1296018Y21357D01*
X1296018Y28752D01*
X1296628Y29362D01*
X1297492Y29362D01*
X1298102Y28752D01*
X1298102Y20488D01*
X1296739Y19125D01*
X1296739Y19121D01*
X1296736Y19118D01*
X1296738Y19115D01*
X1296738Y19109D01*
X1296744Y19109D01*
X1296747Y19105D01*
X1302873Y19105D01*
X1302876Y19108D01*
X1302880Y19107D01*
X1302880Y19112D01*
X1302884Y19115D01*
X1302881Y19120D01*
X1302881Y19125D01*
X1301918Y20088D01*
X1301918Y25511D01*
X1301910Y25933D01*
X1301915Y25937D01*
X1301915Y25941D01*
X1301917Y25944D01*
X1301918Y25945D01*
X1301918Y25952D01*
X1302216Y26250D01*
X1304615Y28737D01*
X1304615Y28743D01*
X1304618Y28745D01*
X1304618Y28752D01*
X1304917Y29050D01*
X1305209Y29354D01*
X1305216Y29354D01*
X1305220Y29358D01*
X1305224Y29358D01*
X1305228Y29362D01*
X1305651Y29362D01*
X1306073Y29370D01*
X1306077Y29365D01*
X1306083Y29365D01*
X1306085Y29362D01*
X1310392Y29362D01*
X1311002Y28752D01*
X1311002Y19117D01*
X1311013Y19105D01*
X1311013Y19106D01*
X1311014Y19105D01*
X1314906Y19105D01*
X1314918Y19115D01*
X1314917Y19116D01*
X1314918Y19117D01*
X1314918Y19269D01*
X1314917Y19270D01*
X1314918Y19270D01*
X1314881Y19650D01*
X1314915Y19691D01*
X1314915Y19696D01*
X1314918Y19698D01*
X1314918Y28852D01*
X1315528Y29462D01*
X1316392Y29462D01*
X1317002Y28852D01*
X1317002Y22256D01*
X1317005Y22253D01*
X1317005Y22248D01*
X1317009Y22248D01*
X1317013Y22244D01*
X1317013Y22245D01*
X1317014Y22244D01*
X1317019Y22249D01*
X1317023Y22249D01*
X1322415Y28791D01*
X1322415Y28794D01*
X1322418Y28797D01*
X1322417Y28797D01*
X1322418Y28798D01*
X1322418Y28852D01*
X1322687Y29121D01*
X1322687Y29122D01*
X1322688Y29122D01*
X1322930Y29416D01*
X1322983Y29421D01*
X1322987Y29425D01*
X1322991Y29424D01*
X1323028Y29462D01*
X1323409Y29462D01*
X1323410Y29463D01*
X1323410Y29462D01*
X1323790Y29499D01*
X1323831Y29465D01*
X1323836Y29465D01*
X1323838Y29462D01*
X1323892Y29462D01*
X1324161Y29193D01*
X1324162Y29193D01*
X1324162Y29192D01*
X1324456Y28950D01*
X1324461Y28897D01*
X1324465Y28893D01*
X1324464Y28889D01*
X1324502Y28852D01*
X1324502Y28471D01*
X1324503Y28470D01*
X1324502Y28470D01*
X1324539Y28090D01*
X1324505Y28049D01*
X1324505Y28044D01*
X1324502Y28042D01*
X1324502Y19117D01*
X1324513Y19105D01*
X1324513Y19106D01*
X1324514Y19105D01*
X1328306Y19105D01*
X1328318Y19115D01*
X1328317Y19116D01*
X1328318Y19117D01*
X1328318Y28852D01*
X1328928Y29462D01*
X1329792Y29462D01*
X1330402Y28852D01*
X1330402Y19117D01*
X1330413Y19105D01*
X1330413Y19106D01*
X1330414Y19105D01*
X1444168Y19105D01*
X1444180Y19115D01*
X1444179Y19116D01*
X1444180Y19117D01*
X1444180Y31928D01*
X1444169Y31940D01*
X1444169Y31939D01*
X1444168Y31940D01*
X1211148Y31940D01*
X1211136Y31929D01*
X1211137Y31929D01*
X1211136Y31928D01*
X1211136Y19117D01*
X1211147Y19105D01*
X1211148Y19106D01*
X1211148Y19105D01*
X1220546Y19105D01*
X1220558Y19115D01*
G37*
G36*
X1308918Y19115D02*
X1308918Y19115D01*
X1308917Y19116D01*
X1308918Y19117D01*
X1308918Y27266D01*
X1308907Y27278D01*
X1308907Y27277D01*
X1308906Y27278D01*
X1306108Y27278D01*
X1306104Y27274D01*
X1306099Y27274D01*
X1304005Y25103D01*
X1304005Y25099D01*
X1304005Y25097D01*
X1304002Y25095D01*
X1304002Y20957D01*
X1304006Y20952D01*
X1304006Y20948D01*
X1305845Y19108D01*
X1305851Y19108D01*
X1305854Y19105D01*
X1308906Y19105D01*
X1308918Y19115D01*
G37*
G36*
X1322418Y19115D02*
X1322418Y19115D01*
X1322417Y19116D01*
X1322418Y19117D01*
X1322418Y25484D01*
X1322415Y25487D01*
X1322415Y25492D01*
X1322411Y25492D01*
X1322407Y25496D01*
X1322403Y25492D01*
X1322397Y25491D01*
X1317149Y19124D01*
X1317149Y19121D01*
X1317147Y19118D01*
X1317150Y19115D01*
X1317150Y19109D01*
X1317155Y19109D01*
X1317158Y19105D01*
X1322406Y19105D01*
X1322418Y19115D01*
G37*
G36*
X1258618Y24173D02*
X1258618Y24173D01*
X1258617Y24173D01*
X1258618Y24174D01*
X1258618Y27166D01*
X1258607Y27178D01*
X1258607Y27177D01*
X1258606Y27178D01*
X1254797Y27178D01*
X1254792Y27174D01*
X1254788Y27174D01*
X1254106Y26492D01*
X1254105Y26486D01*
X1254102Y26484D01*
X1254102Y26483D01*
X1254102Y25457D01*
X1254106Y25452D01*
X1254106Y25448D01*
X1255388Y24166D01*
X1255394Y24165D01*
X1255397Y24162D01*
X1258606Y24162D01*
X1258618Y24173D01*
G37*
G36*
X1258618Y19115D02*
X1258618Y19115D01*
X1258617Y19116D01*
X1258618Y19117D01*
X1258618Y22066D01*
X1258607Y22078D01*
X1258607Y22077D01*
X1258606Y22078D01*
X1255397Y22078D01*
X1255392Y22074D01*
X1255388Y22074D01*
X1254206Y20892D01*
X1254205Y20888D01*
X1254202Y20885D01*
X1254203Y20884D01*
X1254202Y20883D01*
X1254202Y19117D01*
X1254213Y19105D01*
X1254213Y19106D01*
X1254214Y19105D01*
X1258606Y19105D01*
X1258618Y19115D01*
G37*
D10*
X1534898Y217170D02*
X1528755Y217170D01*
X1525683Y220242D01*
X1525683Y226385D01*
X1528755Y229457D01*
X1534898Y229457D01*
X1537970Y226385D01*
X1537970Y220242D01*
X1534898Y217170D01*
X1518675Y217170D02*
X1518675Y229457D01*
X1509460Y229457D01*
X1506388Y226385D01*
X1506388Y217170D01*
X1496308Y217170D02*
X1490165Y217170D01*
X1496308Y217170D02*
X1499380Y220242D01*
X1499380Y226385D01*
X1496308Y229457D01*
X1490165Y229457D01*
X1487093Y226385D01*
X1487093Y223314D01*
X1499380Y223314D01*
X1460790Y217170D02*
X1460790Y235601D01*
X1451574Y235601D01*
X1448503Y232529D01*
X1448503Y226385D01*
X1451574Y223314D01*
X1460790Y223314D01*
X1432279Y235601D02*
X1429208Y232529D01*
X1432279Y235601D02*
X1438423Y235601D01*
X1441495Y232529D01*
X1441495Y220242D01*
X1438423Y217170D01*
X1432279Y217170D01*
X1429208Y220242D01*
X1422200Y217170D02*
X1422200Y235601D01*
X1412984Y235601D01*
X1409912Y232529D01*
X1409912Y229457D01*
X1412984Y226385D01*
X1409912Y223314D01*
X1409912Y220242D01*
X1412984Y217170D01*
X1422200Y217170D01*
X1422200Y226385D02*
X1412984Y226385D01*
X1380538Y232529D02*
X1380538Y220242D01*
X1377466Y217170D01*
X1377466Y229457D02*
X1383610Y229457D01*
X1367674Y217170D02*
X1361531Y217170D01*
X1358459Y220242D01*
X1358459Y226385D01*
X1361531Y229457D01*
X1367674Y229457D01*
X1370746Y226385D01*
X1370746Y220242D01*
X1367674Y217170D01*
X1332156Y217170D02*
X1332156Y235601D01*
X1322941Y235601D01*
X1319869Y232529D01*
X1319869Y226385D01*
X1322941Y223314D01*
X1332156Y223314D01*
X1326012Y223314D02*
X1319869Y217170D01*
X1312861Y220242D02*
X1312861Y235601D01*
X1312861Y220242D02*
X1309789Y217170D01*
X1303646Y217170D01*
X1300574Y220242D01*
X1300574Y235601D01*
X1293566Y235601D02*
X1293566Y217170D01*
X1281279Y217170D01*
X1274271Y235601D02*
X1261984Y235601D01*
X1274271Y235601D02*
X1274271Y217170D01*
X1261984Y217170D01*
X1268127Y226385D02*
X1274271Y226385D01*
X1254976Y217170D02*
X1254976Y235601D01*
X1245760Y235601D01*
X1242689Y232529D01*
X1242689Y226385D01*
X1245760Y223314D01*
X1254976Y223314D01*
X1248832Y223314D02*
X1242689Y217170D01*
X1213314Y220242D02*
X1213314Y232529D01*
X1213314Y220242D02*
X1210242Y217170D01*
X1210242Y229457D02*
X1216386Y229457D01*
X1203522Y235601D02*
X1203522Y217170D01*
X1203522Y226385D02*
X1200450Y229457D01*
X1194307Y229457D01*
X1191235Y226385D01*
X1191235Y217170D01*
X1181155Y217170D02*
X1175012Y217170D01*
X1181155Y217170D02*
X1184227Y220242D01*
X1184227Y226385D01*
X1181155Y229457D01*
X1175012Y229457D01*
X1171940Y226385D01*
X1171940Y223314D01*
X1184227Y223314D01*
X1164932Y217170D02*
X1164932Y229457D01*
X1161860Y229457D01*
X1158789Y226385D01*
X1158789Y217170D01*
X1158789Y226385D02*
X1155717Y229457D01*
X1152645Y226385D01*
X1152645Y217170D01*
X1123270Y229457D02*
X1117127Y229457D01*
X1114055Y226385D01*
X1114055Y217170D01*
X1123270Y217170D01*
X1126342Y220242D01*
X1123270Y223314D01*
X1114055Y223314D01*
X1107047Y235601D02*
X1103975Y235601D01*
X1103975Y217170D01*
X1107047Y217170D02*
X1100903Y217170D01*
X1094184Y235601D02*
X1091112Y235601D01*
X1091112Y217170D01*
X1094184Y217170D02*
X1088040Y217170D01*
D11*
X402844Y219456D02*
X402844Y230133D01*
X397505Y230133D01*
X395726Y228354D01*
X395726Y226574D01*
X397505Y224795D01*
X395726Y223015D01*
X395726Y221236D01*
X397505Y219456D01*
X402844Y219456D01*
X402844Y224795D02*
X397505Y224795D01*
X385811Y230133D02*
X384032Y228354D01*
X385811Y230133D02*
X389371Y230133D01*
X391150Y228354D01*
X391150Y221236D01*
X389371Y219456D01*
X385811Y219456D01*
X384032Y221236D01*
X384032Y224795D01*
X387591Y224795D01*
X379456Y226574D02*
X379456Y219456D01*
X379456Y226574D02*
X375897Y230133D01*
X372338Y226574D01*
X372338Y219456D01*
X372338Y224795D02*
X379456Y224795D01*
X356068Y219456D02*
X348950Y219456D01*
X356068Y219456D02*
X348950Y226574D01*
X348950Y228354D01*
X350730Y230133D01*
X354289Y230133D01*
X356068Y228354D01*
X344374Y228354D02*
X344374Y221236D01*
X344374Y228354D02*
X342595Y230133D01*
X339036Y230133D01*
X337256Y228354D01*
X337256Y221236D01*
X339036Y219456D01*
X342595Y219456D01*
X344374Y221236D01*
X337256Y228354D01*
X332680Y230133D02*
X325562Y219456D01*
X332680Y219456D02*
X325562Y230133D01*
X320986Y219456D02*
X313868Y219456D01*
X320986Y219456D02*
X313868Y226574D01*
X313868Y228354D01*
X315648Y230133D01*
X319207Y230133D01*
X320986Y228354D01*
X309292Y228354D02*
X309292Y221236D01*
X309292Y228354D02*
X307513Y230133D01*
X303954Y230133D01*
X302174Y228354D01*
X302174Y221236D01*
X303954Y219456D01*
X307513Y219456D01*
X309292Y221236D01*
X302174Y228354D01*
X413695Y32774D02*
X413695Y25656D01*
X413695Y32774D02*
X411915Y34553D01*
X408356Y34553D01*
X406577Y32774D01*
X406577Y25656D01*
X408356Y23876D01*
X411915Y23876D01*
X413695Y25656D01*
X406577Y32774D01*
X402001Y25656D02*
X402001Y23876D01*
X402001Y25656D02*
X400221Y25656D01*
X400221Y23876D01*
X402001Y23876D01*
X396154Y32774D02*
X394375Y34553D01*
X390815Y34553D01*
X389036Y32774D01*
X389036Y30994D01*
X390815Y29215D01*
X389036Y27435D01*
X389036Y25656D01*
X390815Y23876D01*
X394375Y23876D01*
X396154Y25656D01*
X396154Y27435D01*
X394375Y29215D01*
X396154Y30994D01*
X396154Y32774D01*
X394375Y29215D02*
X390815Y29215D01*
X384460Y30994D02*
X384460Y23876D01*
X384460Y30994D02*
X382681Y30994D01*
X380901Y29215D01*
X380901Y23876D01*
X380901Y29215D02*
X379121Y30994D01*
X377342Y29215D01*
X377342Y23876D01*
X372766Y23876D02*
X372766Y30994D01*
X370987Y30994D01*
X369207Y29215D01*
X369207Y23876D01*
X369207Y29215D02*
X367428Y30994D01*
X365648Y29215D01*
X365648Y23876D01*
X349378Y23876D02*
X349378Y34553D01*
X344040Y34553D01*
X342260Y32774D01*
X342260Y29215D01*
X344040Y27435D01*
X349378Y27435D01*
X337684Y30994D02*
X335905Y30994D01*
X335905Y23876D01*
X337684Y23876D02*
X334125Y23876D01*
X335905Y34553D02*
X335905Y36333D01*
X328109Y32774D02*
X328109Y25656D01*
X326329Y23876D01*
X326329Y30994D02*
X329888Y30994D01*
X320313Y30994D02*
X314974Y30994D01*
X320313Y30994D02*
X322092Y29215D01*
X322092Y25656D01*
X320313Y23876D01*
X314974Y23876D01*
X310398Y23876D02*
X310398Y34553D01*
X308619Y30994D02*
X310398Y29215D01*
X308619Y30994D02*
X305060Y30994D01*
X303280Y29215D01*
X303280Y23876D01*
D12*
X618998Y85176D02*
X618998Y92633D01*
X617134Y94498D01*
X613405Y94498D01*
X611541Y92633D01*
X611541Y85176D01*
X613405Y83312D01*
X617134Y83312D01*
X618998Y85176D01*
X615270Y87041D02*
X611541Y83312D01*
X607304Y83312D02*
X607304Y94498D01*
X599847Y94498D01*
X603576Y88905D02*
X607304Y88905D01*
X595610Y83312D02*
X595610Y94498D01*
X590017Y94498D01*
X588153Y92633D01*
X588153Y88905D01*
X590017Y87041D01*
X595610Y87041D01*
X572222Y90769D02*
X564765Y83312D01*
X572222Y83312D02*
X564765Y90769D01*
X560528Y90769D02*
X556800Y94498D01*
X556800Y83312D01*
X560528Y83312D02*
X553071Y83312D01*
X548834Y85176D02*
X548834Y92633D01*
X546970Y94498D01*
X543241Y94498D01*
X541377Y92633D01*
X541377Y85176D01*
X543241Y83312D01*
X546970Y83312D01*
X548834Y85176D01*
X541377Y92633D01*
X537140Y92633D02*
X537140Y85176D01*
X537140Y92633D02*
X535276Y94498D01*
X531547Y94498D01*
X529683Y92633D01*
X529683Y85176D01*
X531547Y83312D01*
X535276Y83312D01*
X537140Y85176D01*
X529683Y92633D01*
X618998Y73583D02*
X618998Y66126D01*
X618998Y73583D02*
X617134Y75448D01*
X613405Y75448D01*
X611541Y73583D01*
X611541Y66126D01*
X613405Y64262D01*
X617134Y64262D01*
X618998Y66126D01*
X611541Y73583D01*
X607304Y66126D02*
X607304Y64262D01*
X607304Y66126D02*
X605440Y66126D01*
X605440Y64262D01*
X607304Y64262D01*
X601457Y75448D02*
X594000Y75448D01*
X601457Y75448D02*
X601457Y69855D01*
X597729Y71719D01*
X595864Y71719D01*
X594000Y69855D01*
X594000Y66126D01*
X595864Y64262D01*
X599593Y64262D01*
X601457Y66126D01*
X589763Y64262D02*
X589763Y71719D01*
X587899Y71719D01*
X586035Y69855D01*
X586035Y64262D01*
X586035Y69855D02*
X584170Y71719D01*
X582306Y69855D01*
X582306Y64262D01*
X578069Y64262D02*
X578069Y71719D01*
X576205Y71719D01*
X574341Y69855D01*
X574341Y64262D01*
X574341Y69855D02*
X572476Y71719D01*
X570612Y69855D01*
X570612Y64262D01*
X554681Y64262D02*
X554681Y75448D01*
X549088Y75448D01*
X547224Y73583D01*
X547224Y69855D01*
X549088Y67991D01*
X554681Y67991D01*
X542987Y71719D02*
X541123Y71719D01*
X541123Y64262D01*
X542987Y64262D02*
X539259Y64262D01*
X541123Y75448D02*
X541123Y77312D01*
X533327Y73583D02*
X533327Y66126D01*
X531463Y64262D01*
X531463Y71719D02*
X535191Y71719D01*
X525531Y71719D02*
X519938Y71719D01*
X525531Y71719D02*
X527395Y69855D01*
X527395Y66126D01*
X525531Y64262D01*
X519938Y64262D01*
X515701Y64262D02*
X515701Y75448D01*
X513837Y71719D02*
X515701Y69855D01*
X513837Y71719D02*
X510109Y71719D01*
X508244Y69855D01*
X508244Y64262D01*
X791718Y96183D02*
X791718Y101945D01*
X790277Y103385D01*
X787396Y103385D01*
X785956Y101945D01*
X785956Y96183D01*
X787396Y94742D01*
X790277Y94742D01*
X791718Y96183D01*
X788837Y97623D02*
X785956Y94742D01*
X782363Y94742D02*
X782363Y103385D01*
X776601Y103385D01*
X779482Y99064D02*
X782363Y99064D01*
X773008Y103385D02*
X773008Y94742D01*
X773008Y103385D02*
X768686Y103385D01*
X767245Y101945D01*
X767245Y99064D01*
X768686Y97623D01*
X773008Y97623D01*
X754297Y100504D02*
X748535Y94742D01*
X754297Y94742D02*
X748535Y100504D01*
X744942Y100504D02*
X742061Y103385D01*
X742061Y94742D01*
X744942Y94742D02*
X739180Y94742D01*
X735587Y96183D02*
X735587Y101945D01*
X734146Y103385D01*
X731265Y103385D01*
X729825Y101945D01*
X729825Y96183D01*
X731265Y94742D01*
X734146Y94742D01*
X735587Y96183D01*
X729825Y101945D01*
X726232Y101945D02*
X726232Y96183D01*
X726232Y101945D02*
X724791Y103385D01*
X721910Y103385D01*
X720469Y101945D01*
X720469Y96183D01*
X721910Y94742D01*
X724791Y94742D01*
X726232Y96183D01*
X720469Y101945D01*
X791718Y86705D02*
X791718Y80943D01*
X791718Y86705D02*
X790277Y88145D01*
X787396Y88145D01*
X785956Y86705D01*
X785956Y80943D01*
X787396Y79502D01*
X790277Y79502D01*
X791718Y80943D01*
X785956Y86705D01*
X782363Y80943D02*
X782363Y79502D01*
X782363Y80943D02*
X780922Y80943D01*
X780922Y79502D01*
X782363Y79502D01*
X773364Y79502D02*
X773364Y88145D01*
X777685Y83824D01*
X771923Y83824D01*
X768330Y85264D02*
X768330Y79502D01*
X768330Y85264D02*
X766889Y85264D01*
X765449Y83824D01*
X765449Y79502D01*
X765449Y83824D02*
X764008Y85264D01*
X762568Y83824D01*
X762568Y79502D01*
X758975Y79502D02*
X758975Y85264D01*
X757534Y85264D01*
X756094Y83824D01*
X756094Y79502D01*
X756094Y83824D02*
X754653Y85264D01*
X753213Y83824D01*
X753213Y79502D01*
X740264Y79502D02*
X740264Y88145D01*
X735943Y88145D01*
X734502Y86705D01*
X734502Y83824D01*
X735943Y82383D01*
X740264Y82383D01*
X730909Y85264D02*
X729469Y85264D01*
X729469Y79502D01*
X730909Y79502D02*
X728028Y79502D01*
X729469Y88145D02*
X729469Y89586D01*
X723232Y86705D02*
X723232Y80943D01*
X721791Y79502D01*
X721791Y85264D02*
X724673Y85264D01*
X716995Y85264D02*
X712673Y85264D01*
X716995Y85264D02*
X718436Y83824D01*
X718436Y80943D01*
X716995Y79502D01*
X712673Y79502D01*
X709081Y79502D02*
X709081Y88145D01*
X707640Y85264D02*
X709081Y83824D01*
X707640Y85264D02*
X704759Y85264D01*
X703318Y83824D01*
X703318Y79502D01*
X946658Y204556D02*
X946658Y212013D01*
X944794Y213878D01*
X941065Y213878D01*
X939201Y212013D01*
X939201Y204556D01*
X941065Y202692D01*
X944794Y202692D01*
X946658Y204556D01*
X942930Y206421D02*
X939201Y202692D01*
X934964Y202692D02*
X934964Y213878D01*
X927507Y213878D01*
X931236Y208285D02*
X934964Y208285D01*
X923270Y202692D02*
X923270Y213878D01*
X917677Y213878D01*
X915813Y212013D01*
X915813Y208285D01*
X917677Y206421D01*
X923270Y206421D01*
X899882Y210149D02*
X892425Y202692D01*
X899882Y202692D02*
X892425Y210149D01*
X888188Y212013D02*
X886324Y213878D01*
X882595Y213878D01*
X880731Y212013D01*
X880731Y210149D01*
X882595Y208285D01*
X884460Y208285D01*
X882595Y208285D02*
X880731Y206421D01*
X880731Y204556D01*
X882595Y202692D01*
X886324Y202692D01*
X888188Y204556D01*
X876494Y202692D02*
X869037Y202692D01*
X876494Y202692D02*
X869037Y210149D01*
X869037Y212013D01*
X870901Y213878D01*
X874630Y213878D01*
X876494Y212013D01*
X946658Y192963D02*
X946658Y185506D01*
X946658Y192963D02*
X944794Y194828D01*
X941065Y194828D01*
X939201Y192963D01*
X939201Y185506D01*
X941065Y183642D01*
X944794Y183642D01*
X946658Y185506D01*
X939201Y192963D01*
X934964Y185506D02*
X934964Y183642D01*
X934964Y185506D02*
X933100Y185506D01*
X933100Y183642D01*
X934964Y183642D01*
X929117Y192963D02*
X927253Y194828D01*
X923524Y194828D01*
X921660Y192963D01*
X921660Y191099D01*
X923524Y189235D01*
X921660Y187371D01*
X921660Y185506D01*
X923524Y183642D01*
X927253Y183642D01*
X929117Y185506D01*
X929117Y187371D01*
X927253Y189235D01*
X929117Y191099D01*
X929117Y192963D01*
X927253Y189235D02*
X923524Y189235D01*
X917423Y191099D02*
X917423Y183642D01*
X917423Y191099D02*
X915559Y191099D01*
X913695Y189235D01*
X913695Y183642D01*
X913695Y189235D02*
X911830Y191099D01*
X909966Y189235D01*
X909966Y183642D01*
X905729Y183642D02*
X905729Y191099D01*
X903865Y191099D01*
X902001Y189235D01*
X902001Y183642D01*
X902001Y189235D02*
X900136Y191099D01*
X898272Y189235D01*
X898272Y183642D01*
X882341Y183642D02*
X882341Y194828D01*
X876748Y194828D01*
X874884Y192963D01*
X874884Y189235D01*
X876748Y187371D01*
X882341Y187371D01*
X870647Y191099D02*
X868783Y191099D01*
X868783Y183642D01*
X870647Y183642D02*
X866919Y183642D01*
X868783Y194828D02*
X868783Y196692D01*
X860987Y192963D02*
X860987Y185506D01*
X859123Y183642D01*
X859123Y191099D02*
X862851Y191099D01*
X853191Y191099D02*
X847598Y191099D01*
X853191Y191099D02*
X855055Y189235D01*
X855055Y185506D01*
X853191Y183642D01*
X847598Y183642D01*
X843361Y183642D02*
X843361Y194828D01*
X841497Y191099D02*
X843361Y189235D01*
X841497Y191099D02*
X837769Y191099D01*
X835904Y189235D01*
X835904Y183642D01*
X1063498Y77393D02*
X1063498Y69936D01*
X1063498Y77393D02*
X1061634Y79258D01*
X1057905Y79258D01*
X1056041Y77393D01*
X1056041Y69936D01*
X1057905Y68072D01*
X1061634Y68072D01*
X1063498Y69936D01*
X1059770Y71801D02*
X1056041Y68072D01*
X1051804Y68072D02*
X1051804Y79258D01*
X1044347Y79258D01*
X1048076Y73665D02*
X1051804Y73665D01*
X1040110Y68072D02*
X1040110Y79258D01*
X1034517Y79258D01*
X1032653Y77393D01*
X1032653Y73665D01*
X1034517Y71801D01*
X1040110Y71801D01*
X1016722Y75529D02*
X1009265Y68072D01*
X1016722Y68072D02*
X1009265Y75529D01*
X1005028Y77393D02*
X1003164Y79258D01*
X999435Y79258D01*
X997571Y77393D01*
X997571Y75529D01*
X999435Y73665D01*
X1001300Y73665D01*
X999435Y73665D02*
X997571Y71801D01*
X997571Y69936D01*
X999435Y68072D01*
X1003164Y68072D01*
X1005028Y69936D01*
X993334Y68072D02*
X985877Y68072D01*
X993334Y68072D02*
X985877Y75529D01*
X985877Y77393D01*
X987741Y79258D01*
X991470Y79258D01*
X993334Y77393D01*
X1063498Y58343D02*
X1063498Y50886D01*
X1063498Y58343D02*
X1061634Y60208D01*
X1057905Y60208D01*
X1056041Y58343D01*
X1056041Y50886D01*
X1057905Y49022D01*
X1061634Y49022D01*
X1063498Y50886D01*
X1056041Y58343D01*
X1051804Y50886D02*
X1051804Y49022D01*
X1051804Y50886D02*
X1049940Y50886D01*
X1049940Y49022D01*
X1051804Y49022D01*
X1045957Y60208D02*
X1038500Y60208D01*
X1045957Y60208D02*
X1045957Y54615D01*
X1042229Y56479D01*
X1040364Y56479D01*
X1038500Y54615D01*
X1038500Y50886D01*
X1040364Y49022D01*
X1044093Y49022D01*
X1045957Y50886D01*
X1034263Y49022D02*
X1034263Y56479D01*
X1032399Y56479D01*
X1030535Y54615D01*
X1030535Y49022D01*
X1030535Y54615D02*
X1028670Y56479D01*
X1026806Y54615D01*
X1026806Y49022D01*
X1022569Y49022D02*
X1022569Y56479D01*
X1020705Y56479D01*
X1018841Y54615D01*
X1018841Y49022D01*
X1018841Y54615D02*
X1016976Y56479D01*
X1015112Y54615D01*
X1015112Y49022D01*
X999181Y49022D02*
X999181Y60208D01*
X993588Y60208D01*
X991724Y58343D01*
X991724Y54615D01*
X993588Y52751D01*
X999181Y52751D01*
X987487Y56479D02*
X985623Y56479D01*
X985623Y49022D01*
X987487Y49022D02*
X983759Y49022D01*
X985623Y60208D02*
X985623Y62072D01*
X977827Y58343D02*
X977827Y50886D01*
X975963Y49022D01*
X975963Y56479D02*
X979691Y56479D01*
X970031Y56479D02*
X964438Y56479D01*
X970031Y56479D02*
X971895Y54615D01*
X971895Y50886D01*
X970031Y49022D01*
X964438Y49022D01*
X960201Y49022D02*
X960201Y60208D01*
X958337Y56479D02*
X960201Y54615D01*
X958337Y56479D02*
X954609Y56479D01*
X952744Y54615D01*
X952744Y49022D01*
D13*
X118503Y28240D02*
X105029Y28240D01*
X118503Y23749D02*
X118503Y32731D01*
X118503Y44519D02*
X116257Y46764D01*
X118503Y44519D02*
X118503Y40027D01*
X116257Y37782D01*
X114011Y37782D01*
X111766Y40027D01*
X111766Y44519D01*
X109520Y46764D01*
X107275Y46764D01*
X105029Y44519D01*
X105029Y40027D01*
X107275Y37782D01*
X118503Y54060D02*
X118503Y58551D01*
X118503Y54060D02*
X116257Y51815D01*
X107275Y51815D01*
X105029Y54060D01*
X105029Y58551D01*
X107275Y60797D01*
X116257Y60797D01*
X118503Y58551D01*
X118503Y65847D02*
X105029Y65847D01*
X118503Y65847D02*
X118503Y72584D01*
X116257Y74830D01*
X111766Y74830D01*
X109520Y72584D01*
X109520Y65847D01*
X111766Y79880D02*
X111766Y88862D01*
X116257Y98404D02*
X118503Y102895D01*
X116257Y98404D02*
X111766Y93913D01*
X107275Y93913D01*
X105029Y96158D01*
X105029Y100650D01*
X107275Y102895D01*
X109520Y102895D01*
X111766Y100650D01*
X111766Y93913D01*
X116257Y112437D02*
X118503Y116928D01*
X116257Y112437D02*
X111766Y107946D01*
X107275Y107946D01*
X105029Y110191D01*
X105029Y114682D01*
X107275Y116928D01*
X109520Y116928D01*
X111766Y114682D01*
X111766Y107946D01*
X93397Y23749D02*
X84415Y23749D01*
X93397Y23749D02*
X95643Y25995D01*
X95643Y30486D01*
X93397Y32731D01*
X84415Y32731D01*
X82169Y30486D01*
X82169Y25995D01*
X84415Y23749D01*
X93397Y32731D01*
X84415Y37782D02*
X82169Y37782D01*
X84415Y37782D02*
X84415Y40027D01*
X82169Y40027D01*
X82169Y37782D01*
X93397Y49289D02*
X95643Y53781D01*
X93397Y49289D02*
X88906Y44798D01*
X84415Y44798D01*
X82169Y47044D01*
X82169Y51535D01*
X84415Y53781D01*
X86660Y53781D01*
X88906Y51535D01*
X88906Y44798D01*
X95643Y58831D02*
X95643Y67813D01*
X95643Y58831D02*
X88906Y58831D01*
X91151Y63322D01*
X91151Y65568D01*
X88906Y67813D01*
X84415Y67813D01*
X82169Y65568D01*
X82169Y61077D01*
X84415Y58831D01*
X82169Y72864D02*
X91151Y72864D01*
X91151Y75109D01*
X88906Y77355D01*
X82169Y77355D01*
X88906Y77355D02*
X91151Y79600D01*
X88906Y81846D01*
X82169Y81846D01*
X82169Y86897D02*
X91151Y86897D01*
X91151Y89142D01*
X88906Y91388D01*
X82169Y91388D01*
X88906Y91388D02*
X91151Y93633D01*
X88906Y95879D01*
X82169Y95879D01*
X82169Y114962D02*
X95643Y114962D01*
X95643Y121699D01*
X93397Y123944D01*
X88906Y123944D01*
X86660Y121699D01*
X86660Y114962D01*
X91151Y128995D02*
X91151Y131240D01*
X82169Y131240D01*
X82169Y128995D02*
X82169Y133486D01*
X95643Y131240D02*
X97888Y131240D01*
X93397Y140596D02*
X84415Y140596D01*
X82169Y142841D01*
X91151Y142841D02*
X91151Y138350D01*
X91151Y149951D02*
X91151Y156688D01*
X91151Y149951D02*
X88906Y147705D01*
X84415Y147705D01*
X82169Y149951D01*
X82169Y156688D01*
X82169Y161738D02*
X95643Y161738D01*
X91151Y163984D02*
X88906Y161738D01*
X91151Y163984D02*
X91151Y168475D01*
X88906Y170720D01*
X82169Y170720D01*
X199009Y74549D02*
X212483Y74549D01*
X199009Y74549D02*
X199009Y81286D01*
X201255Y83531D01*
X210237Y83531D01*
X212483Y81286D01*
X212483Y74549D01*
X212483Y88582D02*
X199009Y88582D01*
X199009Y95319D01*
X201255Y97564D01*
X210237Y97564D01*
X212483Y95319D01*
X212483Y88582D01*
X212483Y102615D02*
X199009Y102615D01*
X212483Y102615D02*
X212483Y109351D01*
X210237Y111597D01*
X205746Y111597D01*
X203500Y109351D01*
X203500Y102615D01*
X203500Y107106D02*
X199009Y111597D01*
X210237Y116647D02*
X212483Y118893D01*
X212483Y123384D01*
X210237Y125630D01*
X207991Y125630D01*
X205746Y123384D01*
X205746Y121139D01*
X205746Y123384D02*
X203500Y125630D01*
X201255Y125630D01*
X199009Y123384D01*
X199009Y118893D01*
X201255Y116647D01*
X199009Y144713D02*
X212483Y144713D01*
X212483Y151450D01*
X210237Y153695D01*
X205746Y153695D01*
X203500Y151450D01*
X203500Y144713D01*
X203500Y149204D02*
X199009Y153695D01*
X199009Y158746D02*
X207991Y158746D01*
X212483Y163237D01*
X207991Y167728D01*
X199009Y167728D01*
X205746Y167728D02*
X205746Y158746D01*
X199009Y172778D02*
X212483Y172778D01*
X207991Y177270D01*
X212483Y181761D01*
X199009Y181761D01*
D12*
X220218Y203962D02*
X220218Y215148D01*
X214625Y215148D01*
X212761Y213283D01*
X212761Y211419D01*
X214625Y209555D01*
X212761Y207691D01*
X212761Y205826D01*
X214625Y203962D01*
X220218Y203962D01*
X220218Y209555D02*
X214625Y209555D01*
X202931Y215148D02*
X201067Y213283D01*
X202931Y215148D02*
X206660Y215148D01*
X208524Y213283D01*
X208524Y205826D01*
X206660Y203962D01*
X202931Y203962D01*
X201067Y205826D01*
X201067Y209555D01*
X204796Y209555D01*
X196830Y211419D02*
X196830Y203962D01*
X196830Y211419D02*
X193102Y215148D01*
X189373Y211419D01*
X189373Y203962D01*
X189373Y209555D02*
X196830Y209555D01*
X235458Y49453D02*
X235458Y41996D01*
X235458Y49453D02*
X233594Y51318D01*
X229865Y51318D01*
X228001Y49453D01*
X228001Y41996D01*
X229865Y40132D01*
X233594Y40132D01*
X235458Y41996D01*
X228001Y49453D01*
X223764Y41996D02*
X223764Y40132D01*
X223764Y41996D02*
X221900Y41996D01*
X221900Y40132D01*
X223764Y40132D01*
X214189Y49453D02*
X210460Y51318D01*
X214189Y49453D02*
X217917Y45725D01*
X217917Y41996D01*
X216053Y40132D01*
X212324Y40132D01*
X210460Y41996D01*
X210460Y43861D01*
X212324Y45725D01*
X217917Y45725D01*
X206223Y51318D02*
X198766Y51318D01*
X206223Y51318D02*
X206223Y45725D01*
X202495Y47589D01*
X200630Y47589D01*
X198766Y45725D01*
X198766Y41996D01*
X200630Y40132D01*
X204359Y40132D01*
X206223Y41996D01*
X194529Y40132D02*
X194529Y47589D01*
X192665Y47589D01*
X190801Y45725D01*
X190801Y40132D01*
X190801Y45725D02*
X188936Y47589D01*
X187072Y45725D01*
X187072Y40132D01*
X182835Y40132D02*
X182835Y47589D01*
X180971Y47589D01*
X179107Y45725D01*
X179107Y40132D01*
X179107Y45725D02*
X177242Y47589D01*
X175378Y45725D01*
X175378Y40132D01*
X235458Y32268D02*
X235458Y21082D01*
X235458Y32268D02*
X229865Y32268D01*
X228001Y30403D01*
X228001Y26675D01*
X229865Y24811D01*
X235458Y24811D01*
X223764Y28539D02*
X221900Y28539D01*
X221900Y21082D01*
X223764Y21082D02*
X220036Y21082D01*
X221900Y32268D02*
X221900Y34132D01*
X214104Y30403D02*
X214104Y22946D01*
X212240Y21082D01*
X212240Y28539D02*
X215968Y28539D01*
X206308Y28539D02*
X200715Y28539D01*
X206308Y28539D02*
X208172Y26675D01*
X208172Y22946D01*
X206308Y21082D01*
X200715Y21082D01*
X196478Y21082D02*
X196478Y32268D01*
X194614Y28539D02*
X196478Y26675D01*
X194614Y28539D02*
X190885Y28539D01*
X189021Y26675D01*
X189021Y21082D01*
D14*
X636260Y187000D03*
X636260Y182000D03*
X636260Y177000D03*
X636260Y172000D03*
X636260Y167000D03*
X636260Y162000D03*
X636260Y157000D03*
X636260Y152000D03*
X636260Y147000D03*
X636260Y142000D03*
X636260Y137000D03*
X636260Y132000D03*
X636260Y127000D03*
X636260Y122000D03*
X636260Y117000D03*
X636260Y112000D03*
X636260Y107000D03*
X636260Y102000D03*
X636260Y97000D03*
X636260Y92000D03*
X636260Y87000D03*
X636260Y82000D03*
X636260Y77000D03*
X636260Y72000D03*
X636260Y67000D03*
D15*
X616260Y47000D03*
X611260Y47000D03*
X606260Y47000D03*
X601260Y47000D03*
X596260Y47000D03*
X591260Y47000D03*
X586260Y47000D03*
X581260Y47000D03*
X576260Y47000D03*
X571260Y47000D03*
X566260Y47000D03*
X561260Y47000D03*
X556260Y47000D03*
X551260Y47000D03*
X546260Y47000D03*
X541260Y47000D03*
X536260Y47000D03*
X531260Y47000D03*
X526260Y47000D03*
X521260Y47000D03*
X516260Y47000D03*
X511260Y47000D03*
X506260Y47000D03*
X501260Y47000D03*
X496260Y47000D03*
D14*
X476260Y67000D03*
X476260Y72000D03*
X476260Y77000D03*
X476260Y82000D03*
X476260Y87000D03*
X476260Y92000D03*
X476260Y97000D03*
X476260Y102000D03*
X476260Y107000D03*
X476260Y112000D03*
X476260Y117000D03*
X476260Y122000D03*
X476260Y127000D03*
X476260Y132000D03*
X476260Y137000D03*
X476260Y142000D03*
X476260Y147000D03*
X476260Y152000D03*
X476260Y157000D03*
X476260Y162000D03*
X476260Y167000D03*
X476260Y172000D03*
X476260Y177000D03*
X476260Y182000D03*
X476260Y187000D03*
D15*
X496260Y207000D03*
X501260Y207000D03*
X506260Y207000D03*
X511260Y207000D03*
X516260Y207000D03*
X521260Y207000D03*
X526260Y207000D03*
X531260Y207000D03*
X536260Y207000D03*
X541260Y207000D03*
X546260Y207000D03*
X551260Y207000D03*
X556260Y207000D03*
X561260Y207000D03*
X566260Y207000D03*
X571260Y207000D03*
X576260Y207000D03*
X581260Y207000D03*
X586260Y207000D03*
X591260Y207000D03*
X596260Y207000D03*
X601260Y207000D03*
X606260Y207000D03*
X611260Y207000D03*
X616260Y207000D03*
D16*
X402140Y83000D03*
X402140Y91000D03*
X394140Y91000D03*
X394140Y83000D03*
X386140Y83000D03*
X386140Y91000D03*
X402140Y99000D03*
X394140Y99000D03*
X386140Y99000D03*
X402140Y107000D03*
X394140Y107000D03*
X386140Y107000D03*
X378140Y107000D03*
X378140Y99000D03*
X378140Y91000D03*
X378140Y83000D03*
X402140Y115000D03*
X394140Y115000D03*
X386140Y115000D03*
X378140Y115000D03*
X370140Y115000D03*
X370140Y107000D03*
X370140Y99000D03*
X370140Y91000D03*
X370140Y83000D03*
X394140Y51000D03*
X386140Y51000D03*
X394140Y59000D03*
X386140Y59000D03*
X394140Y67000D03*
X386140Y67000D03*
X378140Y67000D03*
X378140Y59000D03*
X378140Y51000D03*
X394140Y75000D03*
X386140Y75000D03*
X378140Y75000D03*
X370140Y75000D03*
X370140Y67000D03*
X370140Y59000D03*
X370140Y51000D03*
X434140Y91000D03*
X426140Y91000D03*
X434140Y99000D03*
X426140Y99000D03*
X434140Y107000D03*
X426140Y107000D03*
X418140Y107000D03*
X418140Y99000D03*
X418140Y91000D03*
X434140Y115000D03*
X426140Y115000D03*
X418140Y115000D03*
X410140Y115000D03*
X410140Y107000D03*
X410140Y99000D03*
X410140Y91000D03*
X434140Y51000D03*
X426140Y51000D03*
X434140Y59000D03*
X426140Y59000D03*
X434140Y67000D03*
X426140Y67000D03*
X418140Y67000D03*
X418140Y59000D03*
X418140Y51000D03*
X434140Y75000D03*
X426140Y75000D03*
X418140Y75000D03*
X410140Y75000D03*
X410140Y67000D03*
X410140Y59000D03*
X410140Y51000D03*
X434140Y83000D03*
X426140Y83000D03*
X418140Y83000D03*
X410140Y83000D03*
X402140Y75000D03*
X402140Y67000D03*
X402140Y59000D03*
X402140Y51000D03*
X330140Y83000D03*
X330140Y91000D03*
X322140Y91000D03*
X322140Y83000D03*
X314140Y83000D03*
X314140Y91000D03*
X330140Y99000D03*
X322140Y99000D03*
X314140Y99000D03*
X330140Y107000D03*
X322140Y107000D03*
X314140Y107000D03*
X306140Y107000D03*
X306140Y99000D03*
X306140Y91000D03*
X306140Y83000D03*
X330140Y115000D03*
X322140Y115000D03*
X314140Y115000D03*
X306140Y115000D03*
X298140Y115000D03*
X298140Y107000D03*
X298140Y99000D03*
X298140Y91000D03*
X298140Y83000D03*
X322140Y51000D03*
X314140Y51000D03*
X322140Y59000D03*
X314140Y59000D03*
X322140Y67000D03*
X314140Y67000D03*
X306140Y67000D03*
X306140Y59000D03*
X306140Y51000D03*
X322140Y75000D03*
X314140Y75000D03*
X306140Y75000D03*
X298140Y75000D03*
X298140Y67000D03*
X298140Y59000D03*
X298140Y51000D03*
X362140Y91000D03*
X354140Y91000D03*
X362140Y99000D03*
X354140Y99000D03*
X362140Y107000D03*
X354140Y107000D03*
X346140Y107000D03*
X346140Y99000D03*
X346140Y91000D03*
X362140Y115000D03*
X354140Y115000D03*
X346140Y115000D03*
X338140Y115000D03*
X338140Y107000D03*
X338140Y99000D03*
X338140Y91000D03*
X362140Y51000D03*
X354140Y51000D03*
X362140Y59000D03*
X354140Y59000D03*
X362140Y67000D03*
X354140Y67000D03*
X346140Y67000D03*
X346140Y59000D03*
X346140Y51000D03*
X362140Y75000D03*
X354140Y75000D03*
X346140Y75000D03*
X338140Y75000D03*
X338140Y67000D03*
X338140Y59000D03*
X338140Y51000D03*
X362140Y83000D03*
X354140Y83000D03*
X346140Y83000D03*
X338140Y83000D03*
X330140Y75000D03*
X330140Y67000D03*
X330140Y59000D03*
X330140Y51000D03*
X402140Y155000D03*
X402140Y163000D03*
X394140Y163000D03*
X394140Y155000D03*
X386140Y155000D03*
X386140Y163000D03*
X402140Y171000D03*
X394140Y171000D03*
X386140Y171000D03*
X402140Y179000D03*
X394140Y179000D03*
X386140Y179000D03*
X378140Y179000D03*
X378140Y171000D03*
X378140Y163000D03*
X378140Y155000D03*
X402140Y187000D03*
X394140Y187000D03*
X386140Y187000D03*
X378140Y187000D03*
X370140Y187000D03*
X370140Y179000D03*
X370140Y171000D03*
X370140Y163000D03*
X370140Y155000D03*
X394140Y123000D03*
X386140Y123000D03*
X394140Y131000D03*
X386140Y131000D03*
X394140Y139000D03*
X386140Y139000D03*
X378140Y139000D03*
X378140Y131000D03*
X378140Y123000D03*
X394140Y147000D03*
X386140Y147000D03*
X378140Y147000D03*
X370140Y147000D03*
X370140Y139000D03*
X370140Y131000D03*
X370140Y123000D03*
X434140Y163000D03*
X426140Y163000D03*
X434140Y171000D03*
X426140Y171000D03*
X434140Y179000D03*
X426140Y179000D03*
X418140Y179000D03*
X418140Y171000D03*
X418140Y163000D03*
X434140Y187000D03*
X426140Y187000D03*
X418140Y187000D03*
X410140Y187000D03*
X410140Y179000D03*
X410140Y171000D03*
X410140Y163000D03*
X434140Y123000D03*
X426140Y123000D03*
X434140Y131000D03*
X426140Y131000D03*
X434140Y139000D03*
X426140Y139000D03*
X418140Y139000D03*
X418140Y131000D03*
X418140Y123000D03*
X434140Y147000D03*
X426140Y147000D03*
X418140Y147000D03*
X410140Y147000D03*
X410140Y139000D03*
X410140Y131000D03*
X410140Y123000D03*
X434140Y155000D03*
X426140Y155000D03*
X418140Y155000D03*
X410140Y155000D03*
X402140Y147000D03*
X402140Y139000D03*
X402140Y131000D03*
X402140Y123000D03*
X330140Y155000D03*
X330140Y163000D03*
X322140Y163000D03*
X322140Y155000D03*
X314140Y155000D03*
X314140Y163000D03*
X330140Y171000D03*
X322140Y171000D03*
X314140Y171000D03*
X330140Y179000D03*
X322140Y179000D03*
X314140Y179000D03*
X306140Y179000D03*
X306140Y171000D03*
X306140Y163000D03*
X306140Y155000D03*
X330140Y187000D03*
X322140Y187000D03*
X314140Y187000D03*
X306140Y187000D03*
X298140Y187000D03*
X298140Y179000D03*
X298140Y171000D03*
X298140Y163000D03*
X298140Y155000D03*
X322140Y123000D03*
X314140Y123000D03*
X322140Y131000D03*
X314140Y131000D03*
X322140Y139000D03*
X314140Y139000D03*
X306140Y139000D03*
X306140Y131000D03*
X306140Y123000D03*
X322140Y147000D03*
X314140Y147000D03*
X306140Y147000D03*
X298140Y147000D03*
X298140Y139000D03*
X298140Y131000D03*
X298140Y123000D03*
X362140Y163000D03*
X354140Y163000D03*
X362140Y171000D03*
X354140Y171000D03*
X362140Y179000D03*
X354140Y179000D03*
X346140Y179000D03*
X346140Y171000D03*
X346140Y163000D03*
X362140Y187000D03*
X354140Y187000D03*
X346140Y187000D03*
X338140Y187000D03*
X338140Y179000D03*
X338140Y171000D03*
X338140Y163000D03*
X362140Y123000D03*
X354140Y123000D03*
X362140Y131000D03*
X354140Y131000D03*
X362140Y139000D03*
X354140Y139000D03*
X346140Y139000D03*
X346140Y131000D03*
X346140Y123000D03*
X362140Y147000D03*
X354140Y147000D03*
X346140Y147000D03*
X338140Y147000D03*
X338140Y139000D03*
X338140Y131000D03*
X338140Y123000D03*
X362140Y155000D03*
X354140Y155000D03*
X346140Y155000D03*
X338140Y155000D03*
X330140Y147000D03*
X330140Y139000D03*
X330140Y131000D03*
X330140Y123000D03*
X402140Y195000D03*
X394140Y195000D03*
X386140Y195000D03*
X402140Y203000D03*
X394140Y203000D03*
X386140Y203000D03*
X378140Y203000D03*
X378140Y195000D03*
X370140Y203000D03*
X370140Y195000D03*
X434140Y195000D03*
X426140Y195000D03*
X434140Y203000D03*
X426140Y203000D03*
X418140Y203000D03*
X418140Y195000D03*
X410140Y203000D03*
X410140Y195000D03*
X330140Y195000D03*
X322140Y195000D03*
X314140Y195000D03*
X330140Y203000D03*
X322140Y203000D03*
X314140Y203000D03*
X306140Y203000D03*
X306140Y195000D03*
X298140Y203000D03*
X298140Y195000D03*
X362140Y195000D03*
X354140Y195000D03*
X362140Y203000D03*
X354140Y203000D03*
X346140Y203000D03*
X346140Y195000D03*
X338140Y203000D03*
X338140Y195000D03*
X290140Y83000D03*
X290140Y91000D03*
X290140Y99000D03*
X290140Y107000D03*
X282140Y107000D03*
X282140Y99000D03*
X282140Y91000D03*
X282140Y83000D03*
X290140Y115000D03*
X282140Y115000D03*
X290140Y51000D03*
X290140Y59000D03*
X290140Y67000D03*
X282140Y67000D03*
X282140Y59000D03*
X282140Y51000D03*
X290140Y75000D03*
X282140Y75000D03*
X290140Y155000D03*
X290140Y163000D03*
X290140Y171000D03*
X290140Y179000D03*
X282140Y179000D03*
X282140Y171000D03*
X282140Y163000D03*
X282140Y155000D03*
X290140Y187000D03*
X282140Y187000D03*
X290140Y123000D03*
X290140Y131000D03*
X290140Y139000D03*
X282140Y139000D03*
X282140Y131000D03*
X282140Y123000D03*
X290140Y147000D03*
X282140Y147000D03*
X290140Y195000D03*
X290140Y203000D03*
X282140Y203000D03*
X282140Y195000D03*
D17*
X677220Y127000D03*
X677220Y131000D03*
X677220Y135000D03*
X677220Y139000D03*
X677220Y143000D03*
X677220Y147000D03*
X677220Y151000D03*
X677220Y155000D03*
X677220Y159000D03*
X677220Y163000D03*
X677220Y167000D03*
X677220Y171000D03*
X677220Y175000D03*
X677220Y79000D03*
X677220Y83000D03*
X677220Y87000D03*
X677220Y91000D03*
X677220Y95000D03*
X677220Y99000D03*
X677220Y103000D03*
X677220Y107000D03*
X677220Y111000D03*
X677220Y115000D03*
X677220Y119000D03*
X677220Y123000D03*
X811220Y127000D03*
X811220Y123000D03*
X811220Y119000D03*
X811220Y115000D03*
X811220Y111000D03*
X811220Y107000D03*
X811220Y103000D03*
X811220Y99000D03*
X811220Y95000D03*
X811220Y91000D03*
X811220Y87000D03*
X811220Y83000D03*
X811220Y79000D03*
X811220Y175000D03*
X811220Y171000D03*
X811220Y167000D03*
X811220Y163000D03*
X811220Y159000D03*
X811220Y155000D03*
X811220Y151000D03*
X811220Y147000D03*
X811220Y143000D03*
X811220Y139000D03*
X811220Y135000D03*
X811220Y131000D03*
D18*
X744220Y194000D03*
X748220Y194000D03*
X752220Y194000D03*
X756220Y194000D03*
X760220Y194000D03*
X764220Y194000D03*
X768220Y194000D03*
X772220Y194000D03*
X776220Y194000D03*
X780220Y194000D03*
X784220Y194000D03*
X788220Y194000D03*
X792220Y194000D03*
X696220Y194000D03*
X700220Y194000D03*
X704220Y194000D03*
X708220Y194000D03*
X712220Y194000D03*
X716220Y194000D03*
X720220Y194000D03*
X724220Y194000D03*
X728220Y194000D03*
X732220Y194000D03*
X736220Y194000D03*
X740220Y194000D03*
X744220Y60000D03*
X740220Y60000D03*
X736220Y60000D03*
X732220Y60000D03*
X728220Y60000D03*
X724220Y60000D03*
X720220Y60000D03*
X716220Y60000D03*
X712220Y60000D03*
X708220Y60000D03*
X704220Y60000D03*
X700220Y60000D03*
X696220Y60000D03*
X792220Y60000D03*
X788220Y60000D03*
X784220Y60000D03*
X780220Y60000D03*
X776220Y60000D03*
X772220Y60000D03*
X768220Y60000D03*
X764220Y60000D03*
X760220Y60000D03*
X756220Y60000D03*
X752220Y60000D03*
X748220Y60000D03*
D19*
X937006Y155000D03*
X937006Y147000D03*
X937006Y139000D03*
X937006Y131000D03*
X937006Y123000D03*
X937006Y115000D03*
X937006Y107000D03*
X937006Y99000D03*
D20*
X922080Y84074D03*
X914080Y84074D03*
X906080Y84074D03*
X898080Y84074D03*
X890080Y84074D03*
X882080Y84074D03*
X874080Y84074D03*
X866080Y84074D03*
D19*
X851154Y99000D03*
X851154Y107000D03*
X851154Y115000D03*
X851154Y123000D03*
X851154Y131000D03*
X851154Y139000D03*
X851154Y147000D03*
X851154Y155000D03*
D20*
X866080Y169926D03*
X874080Y169926D03*
X882080Y169926D03*
X890080Y169926D03*
X898080Y169926D03*
X906080Y169926D03*
X914080Y169926D03*
X922080Y169926D03*
D21*
X1045920Y144500D03*
X1045920Y139500D03*
X1045920Y134500D03*
X1045920Y129500D03*
X1045920Y124500D03*
X1045920Y119500D03*
X1045920Y114500D03*
X1045920Y109500D03*
D22*
X1028420Y92000D03*
X1023420Y92000D03*
X1018420Y92000D03*
X1013420Y92000D03*
X1008420Y92000D03*
X1003420Y92000D03*
X998420Y92000D03*
X993420Y92000D03*
D21*
X975920Y109500D03*
X975920Y114500D03*
X975920Y119500D03*
X975920Y124500D03*
X975920Y129500D03*
X975920Y134500D03*
X975920Y139500D03*
X975920Y144500D03*
D22*
X993420Y162000D03*
X998420Y162000D03*
X1003420Y162000D03*
X1008420Y162000D03*
X1013420Y162000D03*
X1018420Y162000D03*
X1023420Y162000D03*
X1028420Y162000D03*
D23*
X19200Y23000D03*
X19200Y29500D03*
X19200Y36000D03*
X19200Y42500D03*
X19200Y49000D03*
X19200Y55500D03*
X19200Y62000D03*
X19200Y68500D03*
X19200Y75000D03*
X19200Y81500D03*
X19200Y88000D03*
X19200Y94500D03*
X19200Y101000D03*
X19200Y107500D03*
X19200Y114000D03*
X19200Y120500D03*
X19200Y127000D03*
X19200Y133500D03*
X19200Y140000D03*
X19200Y146500D03*
X19200Y153000D03*
X19200Y159500D03*
X19200Y166000D03*
X19200Y172500D03*
X19200Y179000D03*
X19200Y185500D03*
X19200Y192000D03*
X19200Y198500D03*
X19200Y205000D03*
X19200Y211500D03*
X19200Y218000D03*
X19200Y224500D03*
X19200Y231000D03*
X133200Y231000D03*
X133200Y224500D03*
X133200Y218000D03*
X133200Y211500D03*
X133200Y205000D03*
X133200Y198500D03*
X133200Y192000D03*
X133200Y185500D03*
X133200Y179000D03*
X133200Y172500D03*
X133200Y166000D03*
X133200Y159500D03*
X133200Y153000D03*
X133200Y146500D03*
X133200Y140000D03*
X133200Y133500D03*
X133200Y127000D03*
X133200Y120500D03*
X133200Y114000D03*
X133200Y107500D03*
X133200Y101000D03*
X133200Y94500D03*
X133200Y88000D03*
X133200Y81500D03*
X133200Y75000D03*
X133200Y68500D03*
X133200Y62000D03*
X133200Y55500D03*
X133200Y49000D03*
X133200Y42500D03*
X133200Y36000D03*
X133200Y29500D03*
X133200Y23000D03*
D24*
X189740Y187000D03*
X181740Y187000D03*
X173740Y187000D03*
X189740Y179000D03*
X181740Y179000D03*
X173740Y179000D03*
X189740Y171000D03*
X181740Y171000D03*
X173740Y171000D03*
X189740Y163000D03*
X181740Y163000D03*
X173740Y163000D03*
X189740Y155000D03*
X181740Y155000D03*
X173740Y155000D03*
X189740Y147000D03*
X181740Y147000D03*
X173740Y147000D03*
X189740Y139000D03*
X181740Y139000D03*
X173740Y139000D03*
X189740Y131000D03*
X181740Y131000D03*
X173740Y131000D03*
X189740Y123000D03*
X181740Y123000D03*
X173740Y123000D03*
X189740Y115000D03*
X181740Y115000D03*
X173740Y115000D03*
X189740Y107000D03*
X181740Y107000D03*
X173740Y107000D03*
X189740Y99000D03*
X181740Y99000D03*
X173740Y99000D03*
X189740Y91000D03*
X181740Y91000D03*
X173740Y91000D03*
X189740Y83000D03*
X181740Y83000D03*
X173740Y83000D03*
X189740Y75000D03*
X181740Y75000D03*
X173740Y75000D03*
X189740Y67000D03*
X181740Y67000D03*
X173740Y67000D03*
X237740Y187000D03*
X229740Y187000D03*
X221740Y187000D03*
X237740Y179000D03*
X229740Y179000D03*
X221740Y179000D03*
X237740Y171000D03*
X229740Y171000D03*
X221740Y171000D03*
X237740Y163000D03*
X229740Y163000D03*
X221740Y163000D03*
X237740Y155000D03*
X229740Y155000D03*
X221740Y155000D03*
X237740Y147000D03*
X229740Y147000D03*
X221740Y147000D03*
X237740Y139000D03*
X229740Y139000D03*
X221740Y139000D03*
X237740Y131000D03*
X229740Y131000D03*
X221740Y131000D03*
X237740Y123000D03*
X229740Y123000D03*
X221740Y123000D03*
X237740Y115000D03*
X229740Y115000D03*
X221740Y115000D03*
X237740Y107000D03*
X229740Y107000D03*
X221740Y107000D03*
X237740Y99000D03*
X229740Y99000D03*
X221740Y99000D03*
X237740Y91000D03*
X229740Y91000D03*
X221740Y91000D03*
X237740Y83000D03*
X229740Y83000D03*
X221740Y83000D03*
X237740Y75000D03*
X229740Y75000D03*
X221740Y75000D03*
X237740Y67000D03*
X229740Y67000D03*
X221740Y67000D03*
D25*
X1456944Y36830D03*
D26*
X1220470Y36830D03*
D27*
X1456944Y37084D03*
D28*
X1432941Y37084D03*
D29*
X1415415Y37084D03*
D30*
X1394079Y37084D03*
D29*
X1377061Y37084D03*
D31*
X1356868Y37084D03*
D32*
X1339342Y37084D03*
D29*
X1324991Y37084D03*
X1302893Y37084D03*
D33*
X1270000Y37084D03*
D29*
X1252601Y37084D03*
X1238377Y37084D03*
D34*
X1220089Y37084D03*
D35*
X1456817Y37338D03*
D36*
X1433068Y37338D03*
D29*
X1415415Y37338D03*
D37*
X1394333Y37338D03*
D29*
X1377061Y37338D03*
D36*
X1356868Y37338D03*
D32*
X1339342Y37338D03*
D29*
X1324991Y37338D03*
X1302893Y37338D03*
D38*
X1270127Y37338D03*
D29*
X1252601Y37338D03*
X1238377Y37338D03*
D39*
X1219708Y37338D03*
D40*
X1456944Y37592D03*
D41*
X1433068Y37592D03*
D29*
X1415415Y37592D03*
D36*
X1394206Y37592D03*
D29*
X1377061Y37592D03*
D42*
X1356995Y37592D03*
D32*
X1339342Y37592D03*
D29*
X1324991Y37592D03*
X1302893Y37592D03*
D43*
X1270127Y37592D03*
D29*
X1252601Y37592D03*
X1238377Y37592D03*
D43*
X1219581Y37592D03*
D44*
X1456944Y37846D03*
D45*
X1432941Y37846D03*
D29*
X1415415Y37846D03*
D42*
X1394333Y37846D03*
D29*
X1377061Y37846D03*
D45*
X1356995Y37846D03*
D32*
X1339342Y37846D03*
D29*
X1324991Y37846D03*
X1302893Y37846D03*
D42*
X1270127Y37846D03*
D29*
X1252601Y37846D03*
X1238377Y37846D03*
D46*
X1219327Y37846D03*
D47*
X1457071Y38100D03*
D48*
X1432941Y38100D03*
D29*
X1415415Y38100D03*
D49*
X1394460Y38100D03*
D29*
X1377061Y38100D03*
D50*
X1356868Y38100D03*
D32*
X1339342Y38100D03*
D29*
X1324991Y38100D03*
X1302893Y38100D03*
D45*
X1270127Y38100D03*
D29*
X1252601Y38100D03*
X1238377Y38100D03*
D51*
X1219073Y38100D03*
D52*
X1457071Y38354D03*
D53*
X1432814Y38354D03*
D29*
X1415415Y38354D03*
D50*
X1394460Y38354D03*
D29*
X1377061Y38354D03*
D53*
X1356868Y38354D03*
D32*
X1339342Y38354D03*
D29*
X1324991Y38354D03*
X1302893Y38354D03*
D48*
X1270127Y38354D03*
D29*
X1252601Y38354D03*
X1238377Y38354D03*
D48*
X1219327Y38354D03*
D54*
X1457198Y38608D03*
D55*
X1432941Y38608D03*
D29*
X1415415Y38608D03*
D56*
X1394333Y38608D03*
D29*
X1377061Y38608D03*
D55*
X1356741Y38608D03*
D32*
X1339342Y38608D03*
D29*
X1324991Y38608D03*
X1302893Y38608D03*
D56*
X1270127Y38608D03*
D29*
X1252601Y38608D03*
X1238377Y38608D03*
D57*
X1219454Y38608D03*
D58*
X1457325Y38862D03*
D59*
X1432814Y38862D03*
D29*
X1415415Y38862D03*
D60*
X1394333Y38862D03*
D29*
X1377061Y38862D03*
D61*
X1356741Y38862D03*
D32*
X1339342Y38862D03*
D29*
X1324991Y38862D03*
X1302893Y38862D03*
D60*
X1270127Y38862D03*
D29*
X1252601Y38862D03*
X1238377Y38862D03*
D56*
X1219581Y38862D03*
D62*
X1457325Y39116D03*
D63*
X1432814Y39116D03*
D29*
X1415415Y39116D03*
D55*
X1394333Y39116D03*
D29*
X1377061Y39116D03*
D63*
X1356614Y39116D03*
D32*
X1339342Y39116D03*
D29*
X1324991Y39116D03*
X1302893Y39116D03*
D64*
X1270000Y39116D03*
D29*
X1252601Y39116D03*
X1238377Y39116D03*
D53*
X1219708Y39116D03*
D65*
X1457579Y39370D03*
D66*
X1432687Y39370D03*
D29*
X1415415Y39370D03*
D59*
X1394206Y39370D03*
D29*
X1377061Y39370D03*
D67*
X1356614Y39370D03*
D32*
X1339342Y39370D03*
D29*
X1324991Y39370D03*
X1302893Y39370D03*
D59*
X1270000Y39370D03*
D29*
X1252601Y39370D03*
X1238377Y39370D03*
D53*
X1219708Y39370D03*
D68*
X1457706Y39624D03*
D69*
X1432560Y39624D03*
D29*
X1415415Y39624D03*
D63*
X1394206Y39624D03*
D29*
X1377061Y39624D03*
D66*
X1356487Y39624D03*
D32*
X1339342Y39624D03*
D29*
X1324991Y39624D03*
X1302893Y39624D03*
D63*
X1270000Y39624D03*
D29*
X1252601Y39624D03*
X1238377Y39624D03*
D60*
X1219835Y39624D03*
D70*
X1457706Y39878D03*
D71*
X1432560Y39878D03*
D29*
X1415415Y39878D03*
D67*
X1394206Y39878D03*
D29*
X1377061Y39878D03*
D71*
X1356360Y39878D03*
D32*
X1339342Y39878D03*
D29*
X1324991Y39878D03*
X1302893Y39878D03*
D66*
X1269873Y39878D03*
D29*
X1252601Y39878D03*
X1238377Y39878D03*
D60*
X1219835Y39878D03*
D33*
X1457960Y40132D03*
D72*
X1432433Y40132D03*
D29*
X1415415Y40132D03*
D69*
X1393952Y40132D03*
D29*
X1377061Y40132D03*
D72*
X1356233Y40132D03*
D32*
X1339342Y40132D03*
D29*
X1324991Y40132D03*
X1302893Y40132D03*
D69*
X1269746Y40132D03*
D29*
X1252601Y40132D03*
X1238377Y40132D03*
D73*
X1219962Y40132D03*
D29*
X1458087Y40386D03*
D74*
X1432306Y40386D03*
D29*
X1415415Y40386D03*
D71*
X1393952Y40386D03*
D29*
X1377061Y40386D03*
D75*
X1356233Y40386D03*
D32*
X1339342Y40386D03*
D29*
X1324991Y40386D03*
X1302893Y40386D03*
D71*
X1269746Y40386D03*
D29*
X1252601Y40386D03*
X1238377Y40386D03*
D73*
X1219962Y40386D03*
D28*
X1458341Y40640D03*
D76*
X1432179Y40640D03*
D29*
X1415415Y40640D03*
D77*
X1393952Y40640D03*
D29*
X1377061Y40640D03*
D76*
X1355979Y40640D03*
D32*
X1339342Y40640D03*
D29*
X1324991Y40640D03*
X1302893Y40640D03*
D72*
X1269619Y40640D03*
D29*
X1252601Y40640D03*
X1238377Y40640D03*
D55*
X1220089Y40640D03*
D31*
X1458468Y40894D03*
D78*
X1432179Y40894D03*
D29*
X1415415Y40894D03*
D75*
X1393825Y40894D03*
D29*
X1377061Y40894D03*
D79*
X1350518Y40894D03*
D29*
X1324991Y40894D03*
X1302893Y40894D03*
D74*
X1269492Y40894D03*
D29*
X1252601Y40894D03*
X1238377Y40894D03*
D55*
X1220089Y40894D03*
D37*
X1458595Y41148D03*
D79*
X1426718Y41148D03*
D76*
X1393825Y41148D03*
D29*
X1377061Y41148D03*
D79*
X1350518Y41148D03*
D29*
X1324991Y41148D03*
X1302893Y41148D03*
D74*
X1269492Y41148D03*
D29*
X1252601Y41148D03*
X1238377Y41148D03*
D55*
X1220089Y41148D03*
D39*
X1458722Y41402D03*
D79*
X1426718Y41402D03*
D80*
X1393698Y41402D03*
D29*
X1377061Y41402D03*
D81*
X1350645Y41402D03*
D29*
X1324991Y41402D03*
X1302893Y41402D03*
D76*
X1269365Y41402D03*
D29*
X1252601Y41402D03*
X1238377Y41402D03*
D64*
X1220216Y41402D03*
D82*
X1458976Y41656D03*
D81*
X1426845Y41656D03*
D79*
X1388364Y41656D03*
D81*
X1350645Y41656D03*
D29*
X1324991Y41656D03*
X1302893Y41656D03*
D79*
X1263904Y41656D03*
D29*
X1238377Y41656D03*
D64*
X1220216Y41656D03*
D36*
X1459230Y41910D03*
D81*
X1426845Y41910D03*
D79*
X1388364Y41910D03*
D81*
X1350645Y41910D03*
D29*
X1324991Y41910D03*
X1302893Y41910D03*
D79*
X1263904Y41910D03*
D29*
X1238377Y41910D03*
D64*
X1220216Y41910D03*
D43*
X1459357Y42164D03*
D81*
X1426845Y42164D03*
X1388491Y42164D03*
X1350645Y42164D03*
D29*
X1324991Y42164D03*
X1302893Y42164D03*
D79*
X1263904Y42164D03*
D29*
X1238377Y42164D03*
D64*
X1220216Y42164D03*
D83*
X1459484Y42418D03*
D81*
X1426845Y42418D03*
X1388491Y42418D03*
D84*
X1350772Y42418D03*
D29*
X1324991Y42418D03*
X1302893Y42418D03*
D81*
X1264031Y42418D03*
D29*
X1238377Y42418D03*
D64*
X1220216Y42418D03*
D85*
X1459738Y42672D03*
D81*
X1426845Y42672D03*
X1388491Y42672D03*
D84*
X1350772Y42672D03*
D29*
X1324991Y42672D03*
X1302893Y42672D03*
D81*
X1264031Y42672D03*
D29*
X1238377Y42672D03*
D64*
X1220216Y42672D03*
D42*
X1459865Y42926D03*
D84*
X1426972Y42926D03*
X1388618Y42926D03*
X1350772Y42926D03*
D29*
X1324991Y42926D03*
X1302893Y42926D03*
D81*
X1264031Y42926D03*
D29*
X1238377Y42926D03*
D64*
X1220216Y42926D03*
D41*
X1459992Y43180D03*
D84*
X1426972Y43180D03*
X1388618Y43180D03*
X1350772Y43180D03*
D29*
X1324991Y43180D03*
X1302893Y43180D03*
D81*
X1264031Y43180D03*
D29*
X1238377Y43180D03*
D64*
X1220216Y43180D03*
D49*
X1460246Y43434D03*
D84*
X1426972Y43434D03*
X1388618Y43434D03*
X1350772Y43434D03*
D29*
X1324991Y43434D03*
X1302893Y43434D03*
D81*
X1264031Y43434D03*
D29*
X1238377Y43434D03*
D64*
X1220216Y43434D03*
D45*
X1460373Y43688D03*
D84*
X1426972Y43688D03*
X1388618Y43688D03*
D86*
X1350899Y43688D03*
D29*
X1324991Y43688D03*
X1302893Y43688D03*
D84*
X1264158Y43688D03*
D29*
X1238377Y43688D03*
D64*
X1220216Y43688D03*
D87*
X1460500Y43942D03*
D84*
X1426972Y43942D03*
D86*
X1388745Y43942D03*
X1350899Y43942D03*
D29*
X1324991Y43942D03*
X1302893Y43942D03*
D84*
X1264158Y43942D03*
D29*
X1238377Y43942D03*
D64*
X1220216Y43942D03*
D50*
X1460754Y44196D03*
D84*
X1426972Y44196D03*
D86*
X1388745Y44196D03*
X1350899Y44196D03*
D29*
X1324991Y44196D03*
X1302893Y44196D03*
D84*
X1264158Y44196D03*
D29*
X1238377Y44196D03*
D61*
X1220343Y44196D03*
D48*
X1460881Y44450D03*
D84*
X1426972Y44450D03*
D86*
X1388745Y44450D03*
X1350899Y44450D03*
D29*
X1324991Y44450D03*
X1302893Y44450D03*
D84*
X1264158Y44450D03*
D29*
X1238377Y44450D03*
D61*
X1220343Y44450D03*
D57*
X1461008Y44704D03*
D39*
X1438148Y44704D03*
D87*
X1417828Y44704D03*
D86*
X1388745Y44704D03*
D39*
X1361948Y44704D03*
D51*
X1341755Y44704D03*
D29*
X1324991Y44704D03*
X1302893Y44704D03*
D84*
X1264158Y44704D03*
D29*
X1238377Y44704D03*
D61*
X1220343Y44704D03*
D53*
X1461262Y44958D03*
D31*
X1438402Y44958D03*
D41*
X1417320Y44958D03*
D86*
X1388745Y44958D03*
D28*
X1362329Y44958D03*
D41*
X1341120Y44958D03*
D29*
X1324991Y44958D03*
X1302893Y44958D03*
D84*
X1264158Y44958D03*
D29*
X1238377Y44958D03*
D61*
X1220343Y44958D03*
D60*
X1461389Y45212D03*
D32*
X1438656Y45212D03*
D83*
X1416812Y45212D03*
D88*
X1388872Y45212D03*
D32*
X1362456Y45212D03*
D89*
X1340739Y45212D03*
D29*
X1324991Y45212D03*
X1302893Y45212D03*
D84*
X1264158Y45212D03*
D29*
X1238377Y45212D03*
D61*
X1220343Y45212D03*
D73*
X1461516Y45466D03*
D29*
X1438783Y45466D03*
D36*
X1416558Y45466D03*
D88*
X1388872Y45466D03*
D29*
X1362583Y45466D03*
D36*
X1340358Y45466D03*
D29*
X1324991Y45466D03*
X1302893Y45466D03*
D84*
X1264158Y45466D03*
D29*
X1238377Y45466D03*
D90*
X1223137Y45466D03*
D64*
X1461770Y45720D03*
D29*
X1438783Y45720D03*
D82*
X1416304Y45720D03*
X1399794Y45720D03*
D41*
X1378966Y45720D03*
D29*
X1362583Y45720D03*
D82*
X1340104Y45720D03*
D29*
X1324991Y45720D03*
X1302893Y45720D03*
D82*
X1274826Y45720D03*
D41*
X1254506Y45720D03*
D29*
X1238377Y45720D03*
D31*
X1223772Y45720D03*
D61*
X1461897Y45974D03*
D29*
X1438783Y45974D03*
D39*
X1416050Y45974D03*
X1400048Y45974D03*
D83*
X1378458Y45974D03*
D33*
X1362710Y45974D03*
D39*
X1339850Y45974D03*
D29*
X1324991Y45974D03*
X1302893Y45974D03*
D39*
X1275080Y45974D03*
D83*
X1253998Y45974D03*
D29*
X1238377Y45974D03*
D28*
X1223899Y45974D03*
D91*
X1462151Y46228D03*
D33*
X1438910Y46228D03*
D28*
X1415669Y46228D03*
D31*
X1400302Y46228D03*
D82*
X1377950Y46228D03*
D33*
X1362710Y46228D03*
D28*
X1339469Y46228D03*
D29*
X1324991Y46228D03*
X1302893Y46228D03*
D31*
X1275334Y46228D03*
D90*
X1253617Y46228D03*
D29*
X1238377Y46228D03*
D32*
X1224026Y46228D03*
D63*
X1462278Y46482D03*
D33*
X1438910Y46482D03*
D29*
X1415415Y46482D03*
D28*
X1400429Y46482D03*
D39*
X1377696Y46482D03*
D33*
X1362710Y46482D03*
D32*
X1339342Y46482D03*
D29*
X1324991Y46482D03*
X1302893Y46482D03*
D31*
X1275334Y46482D03*
D39*
X1253236Y46482D03*
D29*
X1238377Y46482D03*
D32*
X1224026Y46482D03*
D92*
X1520190Y46736D03*
D93*
X1462405Y46736D03*
D33*
X1438910Y46736D03*
D29*
X1415415Y46736D03*
D32*
X1400556Y46736D03*
D31*
X1377442Y46736D03*
D33*
X1362710Y46736D03*
D32*
X1339342Y46736D03*
D29*
X1324991Y46736D03*
X1302893Y46736D03*
D28*
X1275461Y46736D03*
D31*
X1252982Y46736D03*
D29*
X1238377Y46736D03*
D32*
X1224026Y46736D03*
D94*
X1520063Y46990D03*
D67*
X1462532Y46990D03*
D33*
X1438910Y46990D03*
D29*
X1415415Y46990D03*
D28*
X1400683Y46990D03*
D32*
X1377188Y46990D03*
D34*
X1362837Y46990D03*
D32*
X1339342Y46990D03*
D29*
X1324991Y46990D03*
X1302893Y46990D03*
D32*
X1275588Y46990D03*
D29*
X1252601Y46990D03*
X1238377Y46990D03*
D32*
X1224026Y46990D03*
D95*
X1519809Y47244D03*
D69*
X1462786Y47244D03*
D33*
X1438910Y47244D03*
D29*
X1415415Y47244D03*
D28*
X1400683Y47244D03*
D29*
X1377061Y47244D03*
D34*
X1362837Y47244D03*
D32*
X1339342Y47244D03*
D29*
X1324991Y47244D03*
X1302893Y47244D03*
D32*
X1275588Y47244D03*
D29*
X1252601Y47244D03*
X1238377Y47244D03*
D32*
X1224026Y47244D03*
D96*
X1519555Y47498D03*
D71*
X1463040Y47498D03*
D33*
X1438910Y47498D03*
D29*
X1415415Y47498D03*
D32*
X1400810Y47498D03*
D29*
X1377061Y47498D03*
D34*
X1362837Y47498D03*
D32*
X1339342Y47498D03*
D29*
X1324991Y47498D03*
X1302893Y47498D03*
D32*
X1275588Y47498D03*
D29*
X1252601Y47498D03*
X1238377Y47498D03*
D32*
X1224026Y47498D03*
D52*
X1519301Y47752D03*
D72*
X1463167Y47752D03*
D33*
X1438910Y47752D03*
D29*
X1415415Y47752D03*
D32*
X1400810Y47752D03*
D29*
X1377061Y47752D03*
D34*
X1362837Y47752D03*
D32*
X1339342Y47752D03*
D29*
X1324991Y47752D03*
X1302893Y47752D03*
X1275715Y47752D03*
X1252601Y47752D03*
X1238377Y47752D03*
D32*
X1224026Y47752D03*
D58*
X1519047Y48006D03*
D77*
X1463294Y48006D03*
D33*
X1438910Y48006D03*
D29*
X1415415Y48006D03*
D32*
X1400810Y48006D03*
D29*
X1377061Y48006D03*
D34*
X1362837Y48006D03*
D32*
X1339342Y48006D03*
D29*
X1324991Y48006D03*
X1302893Y48006D03*
X1275715Y48006D03*
X1252601Y48006D03*
X1238377Y48006D03*
X1224153Y48006D03*
D68*
X1518666Y48260D03*
D74*
X1463548Y48260D03*
D33*
X1438910Y48260D03*
D29*
X1415415Y48260D03*
X1400937Y48260D03*
X1377061Y48260D03*
D34*
X1362837Y48260D03*
D32*
X1339342Y48260D03*
D29*
X1324991Y48260D03*
X1302893Y48260D03*
X1275715Y48260D03*
X1252601Y48260D03*
X1238377Y48260D03*
X1224153Y48260D03*
D34*
X1518539Y48514D03*
D76*
X1463675Y48514D03*
D33*
X1438910Y48514D03*
D29*
X1415415Y48514D03*
X1400937Y48514D03*
X1377061Y48514D03*
D34*
X1362837Y48514D03*
D32*
X1339342Y48514D03*
D29*
X1324991Y48514D03*
X1302893Y48514D03*
X1275715Y48514D03*
X1252601Y48514D03*
X1238377Y48514D03*
X1224153Y48514D03*
D28*
X1518285Y48768D03*
D80*
X1463802Y48768D03*
D33*
X1438910Y48768D03*
D29*
X1415415Y48768D03*
X1400937Y48768D03*
X1377061Y48768D03*
D34*
X1362837Y48768D03*
D32*
X1339342Y48768D03*
D29*
X1324991Y48768D03*
X1302893Y48768D03*
X1275715Y48768D03*
X1252601Y48768D03*
X1238377Y48768D03*
X1224153Y48768D03*
D39*
X1517904Y49022D03*
D97*
X1464056Y49022D03*
D33*
X1438910Y49022D03*
D29*
X1415415Y49022D03*
X1400937Y49022D03*
X1377061Y49022D03*
D34*
X1362837Y49022D03*
D32*
X1339342Y49022D03*
D29*
X1324991Y49022D03*
X1302893Y49022D03*
X1275715Y49022D03*
X1252601Y49022D03*
X1238377Y49022D03*
X1224153Y49022D03*
D36*
X1517396Y49276D03*
D98*
X1464183Y49276D03*
D33*
X1438910Y49276D03*
D29*
X1415415Y49276D03*
X1400937Y49276D03*
X1377061Y49276D03*
D34*
X1362837Y49276D03*
D32*
X1339342Y49276D03*
D29*
X1324991Y49276D03*
X1302893Y49276D03*
X1275715Y49276D03*
X1252601Y49276D03*
X1238377Y49276D03*
X1224153Y49276D03*
D89*
X1517269Y49530D03*
D99*
X1464437Y49530D03*
D33*
X1438910Y49530D03*
D29*
X1415415Y49530D03*
X1400937Y49530D03*
X1377061Y49530D03*
D34*
X1362837Y49530D03*
D32*
X1339342Y49530D03*
D29*
X1324991Y49530D03*
X1302893Y49530D03*
X1275715Y49530D03*
X1252601Y49530D03*
X1238377Y49530D03*
X1224153Y49530D03*
D41*
X1516888Y49784D03*
D100*
X1464564Y49784D03*
D33*
X1438910Y49784D03*
D29*
X1415415Y49784D03*
X1400937Y49784D03*
X1377061Y49784D03*
D34*
X1362837Y49784D03*
D32*
X1339342Y49784D03*
D29*
X1324991Y49784D03*
X1302893Y49784D03*
X1275715Y49784D03*
X1252601Y49784D03*
X1238377Y49784D03*
X1224153Y49784D03*
D45*
X1516507Y50038D03*
D101*
X1464691Y50038D03*
D33*
X1438910Y50038D03*
D29*
X1415415Y50038D03*
D33*
X1401064Y50038D03*
D29*
X1377061Y50038D03*
D33*
X1362710Y50038D03*
D32*
X1339342Y50038D03*
D29*
X1324991Y50038D03*
X1302893Y50038D03*
X1275715Y50038D03*
X1252601Y50038D03*
X1238377Y50038D03*
X1224153Y50038D03*
D50*
X1516126Y50292D03*
D102*
X1464818Y50292D03*
D34*
X1438783Y50292D03*
D29*
X1415415Y50292D03*
D33*
X1401064Y50292D03*
D29*
X1377061Y50292D03*
D33*
X1362710Y50292D03*
D32*
X1339342Y50292D03*
D29*
X1324991Y50292D03*
X1302893Y50292D03*
X1275715Y50292D03*
X1252601Y50292D03*
X1238377Y50292D03*
X1224153Y50292D03*
D53*
X1515618Y50546D03*
D103*
X1465072Y50546D03*
D33*
X1438656Y50546D03*
D29*
X1415415Y50546D03*
D33*
X1401064Y50546D03*
D29*
X1377061Y50546D03*
D33*
X1362710Y50546D03*
D32*
X1339342Y50546D03*
D29*
X1324991Y50546D03*
X1302893Y50546D03*
X1275715Y50546D03*
X1252601Y50546D03*
X1238377Y50546D03*
X1224153Y50546D03*
D73*
X1515364Y50800D03*
D104*
X1465199Y50800D03*
D33*
X1438656Y50800D03*
D29*
X1415415Y50800D03*
D33*
X1401064Y50800D03*
D29*
X1377061Y50800D03*
D33*
X1362710Y50800D03*
D32*
X1339342Y50800D03*
D29*
X1324991Y50800D03*
X1302893Y50800D03*
X1275715Y50800D03*
X1252601Y50800D03*
X1238377Y50800D03*
X1224153Y50800D03*
D61*
X1514983Y51054D03*
D105*
X1465326Y51054D03*
D33*
X1438656Y51054D03*
D29*
X1415415Y51054D03*
D33*
X1401064Y51054D03*
D29*
X1377061Y51054D03*
X1362583Y51054D03*
D32*
X1339342Y51054D03*
D29*
X1324991Y51054D03*
X1302893Y51054D03*
X1275715Y51054D03*
X1252601Y51054D03*
X1238377Y51054D03*
X1224153Y51054D03*
D63*
X1514602Y51308D03*
D106*
X1465453Y51308D03*
D29*
X1438529Y51308D03*
X1415415Y51308D03*
D33*
X1401064Y51308D03*
D29*
X1377061Y51308D03*
D32*
X1362456Y51308D03*
X1339342Y51308D03*
D29*
X1324991Y51308D03*
X1302893Y51308D03*
X1275715Y51308D03*
X1252601Y51308D03*
X1238377Y51308D03*
X1224153Y51308D03*
D69*
X1514094Y51562D03*
D107*
X1465580Y51562D03*
D32*
X1438402Y51562D03*
D29*
X1415415Y51562D03*
D33*
X1401064Y51562D03*
D29*
X1377061Y51562D03*
D32*
X1362202Y51562D03*
X1339342Y51562D03*
D29*
X1324991Y51562D03*
X1302893Y51562D03*
X1275715Y51562D03*
X1252601Y51562D03*
X1238377Y51562D03*
X1224153Y51562D03*
D72*
X1513713Y51816D03*
D108*
X1465707Y51816D03*
D28*
X1438275Y51816D03*
D29*
X1415415Y51816D03*
D33*
X1401064Y51816D03*
D29*
X1377061Y51816D03*
D28*
X1362075Y51816D03*
D32*
X1339342Y51816D03*
D29*
X1324991Y51816D03*
X1302893Y51816D03*
X1275715Y51816D03*
X1252601Y51816D03*
X1238377Y51816D03*
X1224153Y51816D03*
D75*
X1513459Y52070D03*
D109*
X1465834Y52070D03*
D31*
X1437894Y52070D03*
D29*
X1415415Y52070D03*
D33*
X1401064Y52070D03*
D29*
X1377061Y52070D03*
D31*
X1361948Y52070D03*
D32*
X1339342Y52070D03*
D29*
X1324991Y52070D03*
X1302893Y52070D03*
X1275715Y52070D03*
X1252601Y52070D03*
X1238377Y52070D03*
X1224153Y52070D03*
D76*
X1512951Y52324D03*
D110*
X1465961Y52324D03*
D38*
X1437513Y52324D03*
D29*
X1415415Y52324D03*
D33*
X1401064Y52324D03*
D29*
X1377061Y52324D03*
D38*
X1361567Y52324D03*
D32*
X1339342Y52324D03*
D29*
X1324991Y52324D03*
X1302893Y52324D03*
X1275715Y52324D03*
X1252601Y52324D03*
X1238377Y52324D03*
X1224153Y52324D03*
D98*
X1512443Y52578D03*
D111*
X1466088Y52578D03*
D81*
X1426845Y52578D03*
D33*
X1401064Y52578D03*
D29*
X1377061Y52578D03*
D84*
X1350772Y52578D03*
D29*
X1324991Y52578D03*
X1302893Y52578D03*
X1275715Y52578D03*
X1252601Y52578D03*
X1238377Y52578D03*
X1224153Y52578D03*
D100*
X1512062Y52832D03*
D112*
X1466215Y52832D03*
D81*
X1426845Y52832D03*
D33*
X1401064Y52832D03*
D29*
X1377061Y52832D03*
D81*
X1350645Y52832D03*
D29*
X1324991Y52832D03*
X1302893Y52832D03*
X1275715Y52832D03*
X1252601Y52832D03*
X1238377Y52832D03*
X1224153Y52832D03*
D113*
X1511681Y53086D03*
D114*
X1466342Y53086D03*
D81*
X1426845Y53086D03*
D29*
X1401191Y53086D03*
X1377061Y53086D03*
D81*
X1350645Y53086D03*
D29*
X1324991Y53086D03*
X1302893Y53086D03*
X1275715Y53086D03*
X1252601Y53086D03*
X1238377Y53086D03*
X1224153Y53086D03*
D103*
X1511300Y53340D03*
D115*
X1466469Y53340D03*
D81*
X1426845Y53340D03*
D29*
X1401191Y53340D03*
X1377061Y53340D03*
D81*
X1350645Y53340D03*
D29*
X1324991Y53340D03*
X1302893Y53340D03*
X1275715Y53340D03*
X1252601Y53340D03*
X1238377Y53340D03*
X1224153Y53340D03*
D106*
X1510919Y53594D03*
D116*
X1466596Y53594D03*
D79*
X1426718Y53594D03*
D29*
X1401191Y53594D03*
X1377061Y53594D03*
D81*
X1350645Y53594D03*
D29*
X1324991Y53594D03*
X1302893Y53594D03*
X1275715Y53594D03*
X1252601Y53594D03*
X1238377Y53594D03*
X1224153Y53594D03*
D109*
X1510538Y53848D03*
D117*
X1466723Y53848D03*
D79*
X1426718Y53848D03*
D29*
X1401191Y53848D03*
X1377061Y53848D03*
D79*
X1350518Y53848D03*
D29*
X1324991Y53848D03*
X1302893Y53848D03*
X1275715Y53848D03*
X1252601Y53848D03*
X1238377Y53848D03*
X1224153Y53848D03*
D110*
X1510157Y54102D03*
D117*
X1466723Y54102D03*
D79*
X1426718Y54102D03*
D29*
X1401191Y54102D03*
X1377061Y54102D03*
D79*
X1350518Y54102D03*
D29*
X1324991Y54102D03*
X1302893Y54102D03*
X1275715Y54102D03*
X1252601Y54102D03*
X1238377Y54102D03*
X1224153Y54102D03*
D112*
X1509903Y54356D03*
D118*
X1466850Y54356D03*
D119*
X1426591Y54356D03*
D29*
X1401191Y54356D03*
X1377061Y54356D03*
D119*
X1350391Y54356D03*
D29*
X1324991Y54356D03*
X1302893Y54356D03*
X1275715Y54356D03*
X1252601Y54356D03*
X1238377Y54356D03*
X1224153Y54356D03*
D115*
X1509649Y54610D03*
D120*
X1466977Y54610D03*
D119*
X1426591Y54610D03*
D29*
X1401191Y54610D03*
X1377061Y54610D03*
D119*
X1350391Y54610D03*
D29*
X1324991Y54610D03*
X1302893Y54610D03*
X1275715Y54610D03*
X1252601Y54610D03*
X1238377Y54610D03*
X1224153Y54610D03*
D117*
X1509141Y54864D03*
D121*
X1467104Y54864D03*
D122*
X1426464Y54864D03*
D29*
X1401191Y54864D03*
X1377061Y54864D03*
D119*
X1350391Y54864D03*
D29*
X1324991Y54864D03*
X1302893Y54864D03*
X1275715Y54864D03*
X1252601Y54864D03*
X1238377Y54864D03*
X1224153Y54864D03*
D118*
X1509014Y55118D03*
D121*
X1467104Y55118D03*
D122*
X1426464Y55118D03*
D29*
X1401191Y55118D03*
X1377061Y55118D03*
D122*
X1350264Y55118D03*
D29*
X1324991Y55118D03*
X1302893Y55118D03*
X1275715Y55118D03*
X1252601Y55118D03*
X1238377Y55118D03*
X1224153Y55118D03*
D121*
X1508760Y55372D03*
D123*
X1467231Y55372D03*
D124*
X1426337Y55372D03*
D29*
X1401191Y55372D03*
X1377061Y55372D03*
D122*
X1350264Y55372D03*
D29*
X1324991Y55372D03*
X1302893Y55372D03*
X1275715Y55372D03*
X1252601Y55372D03*
X1238377Y55372D03*
X1224153Y55372D03*
D123*
X1508379Y55626D03*
D125*
X1467358Y55626D03*
D124*
X1426337Y55626D03*
D29*
X1401191Y55626D03*
X1377061Y55626D03*
D124*
X1350137Y55626D03*
D29*
X1324991Y55626D03*
X1302893Y55626D03*
X1275715Y55626D03*
X1252601Y55626D03*
X1238377Y55626D03*
X1224153Y55626D03*
D126*
X1508125Y55880D03*
D125*
X1467358Y55880D03*
D127*
X1426210Y55880D03*
D29*
X1401191Y55880D03*
X1377061Y55880D03*
D127*
X1350010Y55880D03*
D29*
X1324991Y55880D03*
X1302893Y55880D03*
X1275715Y55880D03*
X1252601Y55880D03*
X1238377Y55880D03*
X1224153Y55880D03*
D128*
X1507998Y56134D03*
D126*
X1467485Y56134D03*
D129*
X1426083Y56134D03*
D29*
X1401191Y56134D03*
X1377061Y56134D03*
D129*
X1349883Y56134D03*
D29*
X1324991Y56134D03*
X1302893Y56134D03*
X1275715Y56134D03*
X1252601Y56134D03*
X1238377Y56134D03*
X1224153Y56134D03*
D128*
X1507744Y56388D03*
X1467612Y56388D03*
D130*
X1425956Y56388D03*
D29*
X1401191Y56388D03*
X1377061Y56388D03*
D129*
X1349883Y56388D03*
D29*
X1324991Y56388D03*
X1302893Y56388D03*
X1275715Y56388D03*
X1252601Y56388D03*
X1238377Y56388D03*
X1224153Y56388D03*
D131*
X1507490Y56642D03*
D128*
X1467612Y56642D03*
D132*
X1425829Y56642D03*
D29*
X1401191Y56642D03*
X1377061Y56642D03*
D130*
X1349756Y56642D03*
D29*
X1324991Y56642D03*
X1302893Y56642D03*
X1275715Y56642D03*
X1252601Y56642D03*
X1238377Y56642D03*
X1224153Y56642D03*
D133*
X1507363Y56896D03*
D134*
X1467739Y56896D03*
D135*
X1425702Y56896D03*
D29*
X1401191Y56896D03*
X1377061Y56896D03*
D132*
X1349629Y56896D03*
D29*
X1324991Y56896D03*
X1302893Y56896D03*
X1275715Y56896D03*
X1252601Y56896D03*
X1238377Y56896D03*
X1224153Y56896D03*
D136*
X1506982Y57150D03*
D131*
X1467866Y57150D03*
D137*
X1425575Y57150D03*
D29*
X1401191Y57150D03*
X1377061Y57150D03*
D135*
X1349502Y57150D03*
D29*
X1324991Y57150D03*
X1302893Y57150D03*
X1275715Y57150D03*
X1252601Y57150D03*
X1238377Y57150D03*
X1224153Y57150D03*
D137*
X1506855Y57404D03*
D131*
X1467866Y57404D03*
D133*
X1425321Y57404D03*
D29*
X1401191Y57404D03*
X1377061Y57404D03*
D136*
X1349248Y57404D03*
D29*
X1324991Y57404D03*
X1302893Y57404D03*
X1275715Y57404D03*
X1252601Y57404D03*
X1238377Y57404D03*
X1224153Y57404D03*
D135*
X1506728Y57658D03*
D133*
X1467993Y57658D03*
D131*
X1425194Y57658D03*
D29*
X1401191Y57658D03*
X1377061Y57658D03*
D131*
X1348994Y57658D03*
D29*
X1324991Y57658D03*
X1302893Y57658D03*
X1275715Y57658D03*
X1252601Y57658D03*
X1238377Y57658D03*
X1224153Y57658D03*
D135*
X1506474Y57912D03*
D133*
X1467993Y57912D03*
D128*
X1424940Y57912D03*
D29*
X1401191Y57912D03*
X1377061Y57912D03*
D128*
X1348740Y57912D03*
D29*
X1324991Y57912D03*
X1302893Y57912D03*
X1275715Y57912D03*
X1252601Y57912D03*
X1238377Y57912D03*
X1224153Y57912D03*
D132*
X1506347Y58166D03*
D136*
X1468120Y58166D03*
D55*
X1430401Y58166D03*
D29*
X1415415Y58166D03*
X1401191Y58166D03*
X1377061Y58166D03*
D55*
X1354201Y58166D03*
D32*
X1339342Y58166D03*
D29*
X1324991Y58166D03*
X1302893Y58166D03*
X1275715Y58166D03*
X1252601Y58166D03*
X1238377Y58166D03*
X1224153Y58166D03*
D129*
X1506093Y58420D03*
D136*
X1468120Y58420D03*
D49*
X1430782Y58420D03*
D29*
X1415415Y58420D03*
D33*
X1401064Y58420D03*
D29*
X1377061Y58420D03*
D49*
X1354582Y58420D03*
D32*
X1339342Y58420D03*
D29*
X1324991Y58420D03*
X1302893Y58420D03*
X1275715Y58420D03*
X1252601Y58420D03*
X1238377Y58420D03*
X1224153Y58420D03*
D129*
X1505839Y58674D03*
D137*
X1468247Y58674D03*
D38*
X1430909Y58674D03*
D29*
X1415415Y58674D03*
D33*
X1401064Y58674D03*
D29*
X1377061Y58674D03*
D38*
X1354963Y58674D03*
D32*
X1339342Y58674D03*
D29*
X1324991Y58674D03*
X1302893Y58674D03*
X1275715Y58674D03*
X1252601Y58674D03*
X1238377Y58674D03*
X1224153Y58674D03*
D127*
X1505712Y58928D03*
D137*
X1468247Y58928D03*
D138*
X1431163Y58928D03*
D29*
X1415415Y58928D03*
D33*
X1401064Y58928D03*
D29*
X1377061Y58928D03*
D138*
X1355217Y58928D03*
D32*
X1339342Y58928D03*
D29*
X1324991Y58928D03*
X1302893Y58928D03*
X1275715Y58928D03*
X1252601Y58928D03*
X1238377Y58928D03*
X1224153Y58928D03*
D124*
X1505585Y59182D03*
D135*
X1468374Y59182D03*
D29*
X1415415Y59182D03*
D33*
X1401064Y59182D03*
D29*
X1377061Y59182D03*
D32*
X1339342Y59182D03*
D29*
X1324991Y59182D03*
X1302893Y59182D03*
X1275715Y59182D03*
X1252601Y59182D03*
X1238377Y59182D03*
X1224153Y59182D03*
D124*
X1505331Y59436D03*
D135*
X1468374Y59436D03*
D29*
X1415415Y59436D03*
D33*
X1401064Y59436D03*
D29*
X1377061Y59436D03*
D32*
X1339342Y59436D03*
D29*
X1324991Y59436D03*
X1302893Y59436D03*
X1275715Y59436D03*
X1252601Y59436D03*
X1238377Y59436D03*
X1224153Y59436D03*
D124*
X1505331Y59690D03*
D135*
X1468374Y59690D03*
D29*
X1415415Y59690D03*
D33*
X1401064Y59690D03*
D29*
X1377061Y59690D03*
D32*
X1339342Y59690D03*
D29*
X1324991Y59690D03*
X1302893Y59690D03*
X1275715Y59690D03*
X1252601Y59690D03*
X1238377Y59690D03*
X1224153Y59690D03*
D122*
X1505204Y59944D03*
D132*
X1468501Y59944D03*
D29*
X1415415Y59944D03*
D33*
X1401064Y59944D03*
D29*
X1377061Y59944D03*
D32*
X1339342Y59944D03*
D29*
X1324991Y59944D03*
X1302893Y59944D03*
X1275715Y59944D03*
X1252601Y59944D03*
X1238377Y59944D03*
X1224153Y59944D03*
D119*
X1505077Y60198D03*
D132*
X1468501Y60198D03*
D29*
X1415415Y60198D03*
D33*
X1401064Y60198D03*
D29*
X1377061Y60198D03*
D32*
X1339342Y60198D03*
D29*
X1324991Y60198D03*
X1302893Y60198D03*
X1275715Y60198D03*
X1252601Y60198D03*
X1238377Y60198D03*
X1224153Y60198D03*
D119*
X1504823Y60452D03*
D132*
X1468501Y60452D03*
D29*
X1415415Y60452D03*
D33*
X1401064Y60452D03*
D29*
X1377061Y60452D03*
D32*
X1339342Y60452D03*
D29*
X1324991Y60452D03*
X1302893Y60452D03*
X1275715Y60452D03*
X1252601Y60452D03*
X1238377Y60452D03*
X1224153Y60452D03*
D79*
X1504696Y60706D03*
D132*
X1468501Y60706D03*
D29*
X1415415Y60706D03*
D33*
X1401064Y60706D03*
D29*
X1377061Y60706D03*
D32*
X1339342Y60706D03*
D29*
X1324991Y60706D03*
X1302893Y60706D03*
X1275715Y60706D03*
X1252601Y60706D03*
X1238377Y60706D03*
X1224153Y60706D03*
D119*
X1504569Y60960D03*
D130*
X1468628Y60960D03*
D29*
X1415415Y60960D03*
D33*
X1401064Y60960D03*
D29*
X1377061Y60960D03*
D32*
X1339342Y60960D03*
D29*
X1324991Y60960D03*
X1302893Y60960D03*
X1275715Y60960D03*
X1252601Y60960D03*
X1238377Y60960D03*
X1224153Y60960D03*
D79*
X1504442Y61214D03*
D130*
X1468628Y61214D03*
D29*
X1415415Y61214D03*
D33*
X1401064Y61214D03*
D29*
X1377061Y61214D03*
D32*
X1339342Y61214D03*
D29*
X1324991Y61214D03*
X1302893Y61214D03*
X1275715Y61214D03*
X1252601Y61214D03*
X1238377Y61214D03*
X1224153Y61214D03*
D81*
X1504315Y61468D03*
D130*
X1468628Y61468D03*
D29*
X1415415Y61468D03*
D33*
X1401064Y61468D03*
D29*
X1377061Y61468D03*
D32*
X1339342Y61468D03*
D29*
X1324991Y61468D03*
X1302893Y61468D03*
X1275715Y61468D03*
X1252601Y61468D03*
X1238377Y61468D03*
X1224153Y61468D03*
D81*
X1504061Y61722D03*
D129*
X1468755Y61722D03*
D29*
X1415415Y61722D03*
X1400937Y61722D03*
X1377061Y61722D03*
D32*
X1339342Y61722D03*
D29*
X1324991Y61722D03*
X1302893Y61722D03*
X1275715Y61722D03*
X1252601Y61722D03*
X1238377Y61722D03*
X1224153Y61722D03*
D81*
X1504061Y61976D03*
D129*
X1468755Y61976D03*
D29*
X1415415Y61976D03*
X1400937Y61976D03*
X1377061Y61976D03*
D32*
X1339342Y61976D03*
D29*
X1324991Y61976D03*
X1302893Y61976D03*
X1275715Y61976D03*
X1252601Y61976D03*
X1238377Y61976D03*
X1224153Y61976D03*
D84*
X1503934Y62230D03*
D129*
X1468755Y62230D03*
D29*
X1415415Y62230D03*
X1400937Y62230D03*
X1377061Y62230D03*
D32*
X1339342Y62230D03*
D29*
X1324991Y62230D03*
X1302893Y62230D03*
X1275715Y62230D03*
X1252601Y62230D03*
X1238377Y62230D03*
X1224153Y62230D03*
D81*
X1503807Y62484D03*
D129*
X1468755Y62484D03*
D34*
X1437513Y62484D03*
D29*
X1415415Y62484D03*
X1400937Y62484D03*
X1377061Y62484D03*
D70*
X1361440Y62484D03*
D32*
X1339342Y62484D03*
D29*
X1324991Y62484D03*
X1302893Y62484D03*
X1275715Y62484D03*
X1252601Y62484D03*
X1238377Y62484D03*
X1224153Y62484D03*
D84*
X1503680Y62738D03*
D129*
X1468755Y62738D03*
D34*
X1437513Y62738D03*
D29*
X1415415Y62738D03*
X1400937Y62738D03*
X1377061Y62738D03*
D70*
X1361440Y62738D03*
D32*
X1339342Y62738D03*
D29*
X1324991Y62738D03*
D32*
X1302766Y62738D03*
D29*
X1275715Y62738D03*
X1252601Y62738D03*
X1238377Y62738D03*
X1224153Y62738D03*
D84*
X1503680Y62992D03*
D127*
X1468882Y62992D03*
D34*
X1437513Y62992D03*
D29*
X1415415Y62992D03*
X1400937Y62992D03*
X1377061Y62992D03*
D70*
X1361440Y62992D03*
D32*
X1339342Y62992D03*
D29*
X1324991Y62992D03*
D31*
X1302512Y62992D03*
D29*
X1275715Y62992D03*
X1252601Y62992D03*
X1238377Y62992D03*
X1224153Y62992D03*
D86*
X1503553Y63246D03*
D127*
X1468882Y63246D03*
D34*
X1437513Y63246D03*
D29*
X1415415Y63246D03*
X1400937Y63246D03*
X1377061Y63246D03*
D34*
X1361313Y63246D03*
D32*
X1339342Y63246D03*
D29*
X1324991Y63246D03*
D38*
X1302131Y63246D03*
D29*
X1275715Y63246D03*
X1252601Y63246D03*
X1238377Y63246D03*
X1224153Y63246D03*
D84*
X1503426Y63500D03*
D127*
X1468882Y63500D03*
D34*
X1437513Y63500D03*
D29*
X1415415Y63500D03*
X1400937Y63500D03*
X1377061Y63500D03*
D34*
X1361313Y63500D03*
D32*
X1339342Y63500D03*
D29*
X1324991Y63500D03*
D36*
X1301750Y63500D03*
D29*
X1275715Y63500D03*
X1252601Y63500D03*
X1238377Y63500D03*
X1224153Y63500D03*
D86*
X1503299Y63754D03*
D129*
X1469009Y63754D03*
D34*
X1437513Y63754D03*
D29*
X1415415Y63754D03*
D32*
X1400810Y63754D03*
D29*
X1377061Y63754D03*
D34*
X1361313Y63754D03*
D32*
X1339342Y63754D03*
D29*
X1324991Y63754D03*
D42*
X1301115Y63754D03*
D29*
X1275715Y63754D03*
X1252601Y63754D03*
X1238377Y63754D03*
X1224153Y63754D03*
D84*
X1503172Y64008D03*
D129*
X1469009Y64008D03*
D34*
X1437513Y64008D03*
D29*
X1415415Y64008D03*
D32*
X1400810Y64008D03*
D29*
X1377061Y64008D03*
D34*
X1361313Y64008D03*
D29*
X1339469Y64008D03*
X1324991Y64008D03*
D87*
X1300480Y64008D03*
D29*
X1275715Y64008D03*
X1252601Y64008D03*
X1238377Y64008D03*
X1224153Y64008D03*
D86*
X1503045Y64262D03*
D129*
X1469009Y64262D03*
D34*
X1437513Y64262D03*
D29*
X1415415Y64262D03*
X1400683Y64262D03*
X1377061Y64262D03*
D34*
X1361313Y64262D03*
D29*
X1339469Y64262D03*
X1324991Y64262D03*
D99*
X1296543Y64262D03*
D29*
X1275715Y64262D03*
X1252601Y64262D03*
X1238377Y64262D03*
X1224153Y64262D03*
D86*
X1503045Y64516D03*
D129*
X1469009Y64516D03*
D34*
X1437513Y64516D03*
D32*
X1415542Y64516D03*
X1400556Y64516D03*
D29*
X1377061Y64516D03*
D34*
X1361313Y64516D03*
D29*
X1339469Y64516D03*
X1324991Y64516D03*
D99*
X1296543Y64516D03*
D29*
X1275715Y64516D03*
X1252601Y64516D03*
X1238377Y64516D03*
X1224153Y64516D03*
D86*
X1503045Y64770D03*
D129*
X1469009Y64770D03*
D34*
X1437513Y64770D03*
D32*
X1415542Y64770D03*
X1400556Y64770D03*
X1377188Y64770D03*
D34*
X1361313Y64770D03*
D29*
X1339469Y64770D03*
X1324991Y64770D03*
D99*
X1296543Y64770D03*
D29*
X1275715Y64770D03*
X1252601Y64770D03*
X1238377Y64770D03*
X1224153Y64770D03*
D86*
X1502791Y65024D03*
D129*
X1469009Y65024D03*
D33*
X1437386Y65024D03*
D32*
X1415542Y65024D03*
D28*
X1400429Y65024D03*
D31*
X1377442Y65024D03*
D34*
X1361313Y65024D03*
D29*
X1339469Y65024D03*
X1324991Y65024D03*
D99*
X1296543Y65024D03*
D29*
X1275715Y65024D03*
X1252601Y65024D03*
X1238377Y65024D03*
X1224153Y65024D03*
D86*
X1502791Y65278D03*
D129*
X1469009Y65278D03*
D33*
X1437386Y65278D03*
D32*
X1415542Y65278D03*
D31*
X1400302Y65278D03*
D39*
X1377696Y65278D03*
D33*
X1361186Y65278D03*
D29*
X1339469Y65278D03*
X1324991Y65278D03*
D99*
X1296543Y65278D03*
D29*
X1275715Y65278D03*
X1252601Y65278D03*
X1238377Y65278D03*
X1224153Y65278D03*
D84*
X1502664Y65532D03*
D130*
X1469136Y65532D03*
D33*
X1437386Y65532D03*
D28*
X1415669Y65532D03*
D37*
X1400175Y65532D03*
D90*
X1378077Y65532D03*
D33*
X1361186Y65532D03*
D32*
X1339596Y65532D03*
D29*
X1324991Y65532D03*
D99*
X1296543Y65532D03*
D29*
X1275715Y65532D03*
X1252601Y65532D03*
X1238377Y65532D03*
X1224153Y65532D03*
D86*
X1502537Y65786D03*
D130*
X1469136Y65786D03*
D29*
X1437259Y65786D03*
D32*
X1415796Y65786D03*
D38*
X1399921Y65786D03*
D89*
X1378585Y65786D03*
D29*
X1361059Y65786D03*
D28*
X1339723Y65786D03*
D29*
X1324991Y65786D03*
D99*
X1296543Y65786D03*
D29*
X1275715Y65786D03*
X1252601Y65786D03*
X1238377Y65786D03*
X1224153Y65786D03*
D86*
X1502537Y66040D03*
D130*
X1469136Y66040D03*
D32*
X1437132Y66040D03*
D28*
X1415923Y66040D03*
D36*
X1399286Y66040D03*
D46*
X1379093Y66040D03*
D32*
X1360932Y66040D03*
D28*
X1339723Y66040D03*
D29*
X1324991Y66040D03*
D99*
X1296543Y66040D03*
D29*
X1275715Y66040D03*
X1252601Y66040D03*
X1238377Y66040D03*
X1224153Y66040D03*
D86*
X1502537Y66294D03*
D130*
X1469136Y66294D03*
D31*
X1436878Y66294D03*
D37*
X1416177Y66294D03*
D86*
X1388745Y66294D03*
D28*
X1360805Y66294D03*
D37*
X1339977Y66294D03*
D61*
X1321181Y66294D03*
D99*
X1296543Y66294D03*
D29*
X1275715Y66294D03*
X1252601Y66294D03*
X1238377Y66294D03*
D61*
X1220343Y66294D03*
D86*
X1502283Y66548D03*
D130*
X1469136Y66548D03*
D90*
X1436243Y66548D03*
D36*
X1416812Y66548D03*
D86*
X1388745Y66548D03*
D90*
X1360043Y66548D03*
D36*
X1340612Y66548D03*
D61*
X1321181Y66548D03*
D99*
X1296543Y66548D03*
D29*
X1275715Y66548D03*
X1252601Y66548D03*
X1238377Y66548D03*
D61*
X1220343Y66548D03*
D86*
X1502283Y66802D03*
D130*
X1469136Y66802D03*
D127*
X1426464Y66802D03*
D86*
X1388745Y66802D03*
D127*
X1350264Y66802D03*
D61*
X1321181Y66802D03*
D99*
X1296543Y66802D03*
D29*
X1275715Y66802D03*
X1252601Y66802D03*
X1238377Y66802D03*
D61*
X1220343Y66802D03*
D86*
X1502283Y67056D03*
D130*
X1469136Y67056D03*
D129*
X1426337Y67056D03*
D86*
X1388745Y67056D03*
D127*
X1350264Y67056D03*
D61*
X1321181Y67056D03*
D99*
X1296543Y67056D03*
D29*
X1275715Y67056D03*
X1252601Y67056D03*
X1238377Y67056D03*
D61*
X1220343Y67056D03*
D139*
X1486281Y67310D03*
D129*
X1426337Y67310D03*
D84*
X1388618Y67310D03*
D127*
X1350264Y67310D03*
D61*
X1321181Y67310D03*
D99*
X1296543Y67310D03*
D29*
X1275715Y67310D03*
X1252601Y67310D03*
X1238377Y67310D03*
D61*
X1220343Y67310D03*
D139*
X1486281Y67564D03*
D129*
X1426337Y67564D03*
D84*
X1388618Y67564D03*
D129*
X1350137Y67564D03*
D61*
X1321181Y67564D03*
D99*
X1296543Y67564D03*
D29*
X1275715Y67564D03*
X1252601Y67564D03*
X1238377Y67564D03*
D61*
X1220343Y67564D03*
D139*
X1486281Y67818D03*
D129*
X1426337Y67818D03*
D84*
X1388618Y67818D03*
D129*
X1350137Y67818D03*
D61*
X1321181Y67818D03*
D99*
X1296543Y67818D03*
D29*
X1275715Y67818D03*
X1252601Y67818D03*
X1238377Y67818D03*
D61*
X1220343Y67818D03*
D140*
X1486154Y68072D03*
D129*
X1426337Y68072D03*
D84*
X1388618Y68072D03*
D130*
X1350264Y68072D03*
D61*
X1321181Y68072D03*
D99*
X1296543Y68072D03*
D29*
X1275715Y68072D03*
X1252601Y68072D03*
X1238377Y68072D03*
D61*
X1220343Y68072D03*
D141*
X1486281Y68326D03*
D129*
X1426337Y68326D03*
D81*
X1388491Y68326D03*
D130*
X1350264Y68326D03*
D61*
X1321181Y68326D03*
D99*
X1296543Y68326D03*
D29*
X1275715Y68326D03*
X1252601Y68326D03*
X1238377Y68326D03*
D61*
X1220343Y68326D03*
D142*
X1486154Y68580D03*
D129*
X1426337Y68580D03*
D81*
X1388491Y68580D03*
D130*
X1350264Y68580D03*
D61*
X1321181Y68580D03*
D99*
X1296543Y68580D03*
D29*
X1275715Y68580D03*
X1252601Y68580D03*
X1238377Y68580D03*
D61*
X1220343Y68580D03*
D142*
X1486154Y68834D03*
D132*
X1426337Y68834D03*
D81*
X1388491Y68834D03*
D130*
X1350264Y68834D03*
D61*
X1321181Y68834D03*
D99*
X1296543Y68834D03*
D29*
X1275715Y68834D03*
X1252601Y68834D03*
X1238377Y68834D03*
D61*
X1220343Y68834D03*
D143*
X1486281Y69088D03*
D132*
X1426337Y69088D03*
D81*
X1388491Y69088D03*
D132*
X1350137Y69088D03*
D61*
X1321181Y69088D03*
D99*
X1296543Y69088D03*
D29*
X1275715Y69088D03*
X1252601Y69088D03*
X1238377Y69088D03*
D61*
X1220343Y69088D03*
D144*
X1486154Y69342D03*
D132*
X1426337Y69342D03*
D79*
X1388364Y69342D03*
D135*
X1350264Y69342D03*
D61*
X1321181Y69342D03*
D99*
X1296543Y69342D03*
D29*
X1275715Y69342D03*
X1252601Y69342D03*
X1238377Y69342D03*
D61*
X1220343Y69342D03*
D144*
X1486154Y69596D03*
D132*
X1426337Y69596D03*
D79*
X1388364Y69596D03*
D135*
X1350264Y69596D03*
D61*
X1321181Y69596D03*
D29*
X1302893Y69596D03*
D82*
X1291082Y69596D03*
D29*
X1275715Y69596D03*
X1252601Y69596D03*
X1238377Y69596D03*
D61*
X1220343Y69596D03*
D145*
X1486281Y69850D03*
D137*
X1426337Y69850D03*
D119*
X1388237Y69850D03*
D135*
X1350264Y69850D03*
D61*
X1321181Y69850D03*
D29*
X1302893Y69850D03*
D38*
X1290955Y69850D03*
D29*
X1275715Y69850D03*
X1252601Y69850D03*
X1238377Y69850D03*
D61*
X1220343Y69850D03*
D145*
X1486281Y70104D03*
D137*
X1426337Y70104D03*
D119*
X1388237Y70104D03*
D137*
X1350137Y70104D03*
D61*
X1321181Y70104D03*
D29*
X1302893Y70104D03*
D39*
X1290828Y70104D03*
D29*
X1275715Y70104D03*
X1252601Y70104D03*
X1238377Y70104D03*
D61*
X1220343Y70104D03*
D146*
X1486154Y70358D03*
D137*
X1426337Y70358D03*
D122*
X1388110Y70358D03*
D136*
X1350264Y70358D03*
D61*
X1321181Y70358D03*
D29*
X1302893Y70358D03*
D37*
X1290701Y70358D03*
D29*
X1275715Y70358D03*
X1252601Y70358D03*
X1238377Y70358D03*
D61*
X1220343Y70358D03*
D147*
X1495679Y70612D03*
D55*
X1463421Y70612D03*
D133*
X1426337Y70612D03*
D122*
X1388110Y70612D03*
D136*
X1350264Y70612D03*
D61*
X1321181Y70612D03*
D29*
X1302893Y70612D03*
D31*
X1290574Y70612D03*
D29*
X1275715Y70612D03*
X1252601Y70612D03*
X1238377Y70612D03*
D61*
X1220343Y70612D03*
D148*
X1495933Y70866D03*
D60*
X1463167Y70866D03*
D133*
X1426337Y70866D03*
D74*
X1393444Y70866D03*
D29*
X1377061Y70866D03*
D131*
X1350264Y70866D03*
D61*
X1321181Y70866D03*
D29*
X1302893Y70866D03*
D28*
X1290447Y70866D03*
D29*
X1275715Y70866D03*
X1252601Y70866D03*
X1238377Y70866D03*
D61*
X1220343Y70866D03*
D149*
X1495933Y71120D03*
D56*
X1463167Y71120D03*
D134*
X1426337Y71120D03*
D77*
X1393444Y71120D03*
D29*
X1377061Y71120D03*
D131*
X1350264Y71120D03*
D61*
X1321181Y71120D03*
D29*
X1302893Y71120D03*
D32*
X1290320Y71120D03*
D29*
X1275715Y71120D03*
X1252601Y71120D03*
X1238377Y71120D03*
D61*
X1220343Y71120D03*
D150*
X1496187Y71374D03*
D56*
X1463167Y71374D03*
D134*
X1426337Y71374D03*
D72*
X1393571Y71374D03*
D29*
X1377061Y71374D03*
D128*
X1350264Y71374D03*
D61*
X1321181Y71374D03*
D29*
X1302893Y71374D03*
X1290193Y71374D03*
X1275715Y71374D03*
X1252601Y71374D03*
X1238377Y71374D03*
D61*
X1220343Y71374D03*
D151*
X1496314Y71628D03*
D48*
X1463167Y71628D03*
D126*
X1426337Y71628D03*
D69*
X1393698Y71628D03*
D29*
X1377061Y71628D03*
D125*
X1350264Y71628D03*
D61*
X1321181Y71628D03*
D29*
X1302893Y71628D03*
D33*
X1290066Y71628D03*
D29*
X1275715Y71628D03*
X1252601Y71628D03*
X1238377Y71628D03*
D61*
X1220343Y71628D03*
D152*
X1496314Y71882D03*
D48*
X1463167Y71882D03*
D123*
X1426337Y71882D03*
D67*
X1393698Y71882D03*
D29*
X1377061Y71882D03*
D125*
X1350264Y71882D03*
D61*
X1321181Y71882D03*
D29*
X1302893Y71882D03*
D34*
X1289939Y71882D03*
D29*
X1275715Y71882D03*
X1252601Y71882D03*
X1238377Y71882D03*
D61*
X1220343Y71882D03*
D153*
X1496441Y72136D03*
D50*
X1463294Y72136D03*
D121*
X1426464Y72136D03*
D63*
X1393698Y72136D03*
D29*
X1377061Y72136D03*
D121*
X1350264Y72136D03*
D61*
X1321181Y72136D03*
D29*
X1302893Y72136D03*
D30*
X1289685Y72136D03*
D29*
X1275715Y72136D03*
X1252601Y72136D03*
X1238377Y72136D03*
D61*
X1220343Y72136D03*
D154*
X1496568Y72390D03*
D50*
X1463294Y72390D03*
D118*
X1426464Y72390D03*
D59*
X1393698Y72390D03*
D29*
X1377061Y72390D03*
D118*
X1350264Y72390D03*
D61*
X1321181Y72390D03*
D29*
X1302893Y72390D03*
D68*
X1289558Y72390D03*
D29*
X1275715Y72390D03*
X1252601Y72390D03*
X1238377Y72390D03*
D61*
X1220343Y72390D03*
D155*
X1496568Y72644D03*
D87*
X1463294Y72644D03*
D117*
X1426337Y72644D03*
D55*
X1393825Y72644D03*
D29*
X1377061Y72644D03*
D116*
X1350264Y72644D03*
D61*
X1321181Y72644D03*
D29*
X1302893Y72644D03*
D65*
X1289431Y72644D03*
D29*
X1275715Y72644D03*
X1252601Y72644D03*
X1238377Y72644D03*
D61*
X1220343Y72644D03*
D156*
X1496695Y72898D03*
D87*
X1463294Y72898D03*
D114*
X1426464Y72898D03*
D60*
X1393825Y72898D03*
D29*
X1377061Y72898D03*
D114*
X1350264Y72898D03*
D61*
X1321181Y72898D03*
D29*
X1302893Y72898D03*
D157*
X1289304Y72898D03*
D29*
X1275715Y72898D03*
X1252601Y72898D03*
X1238377Y72898D03*
D61*
X1220343Y72898D03*
D158*
X1496822Y73152D03*
D45*
X1463421Y73152D03*
D110*
X1426337Y73152D03*
D57*
X1393952Y73152D03*
D29*
X1377061Y73152D03*
D110*
X1350137Y73152D03*
D61*
X1321181Y73152D03*
D29*
X1302893Y73152D03*
D159*
X1289050Y73152D03*
D29*
X1275715Y73152D03*
X1252601Y73152D03*
X1238377Y73152D03*
D61*
X1220343Y73152D03*
D160*
X1496695Y73406D03*
D87*
X1463548Y73406D03*
D108*
X1426337Y73406D03*
D87*
X1393952Y73406D03*
D29*
X1377061Y73406D03*
D107*
X1350264Y73406D03*
D61*
X1321181Y73406D03*
D29*
X1302893Y73406D03*
D58*
X1288923Y73406D03*
D29*
X1275715Y73406D03*
X1252601Y73406D03*
X1238377Y73406D03*
D61*
X1220343Y73406D03*
D161*
X1496822Y73660D03*
D45*
X1463675Y73660D03*
D105*
X1426464Y73660D03*
D49*
X1393952Y73660D03*
D29*
X1377061Y73660D03*
D104*
X1350391Y73660D03*
D61*
X1321181Y73660D03*
D29*
X1302893Y73660D03*
D54*
X1288796Y73660D03*
D29*
X1275715Y73660D03*
X1252601Y73660D03*
X1238377Y73660D03*
D61*
X1220343Y73660D03*
D162*
X1496822Y73914D03*
D49*
X1463802Y73914D03*
D100*
X1426464Y73914D03*
D83*
X1393952Y73914D03*
D29*
X1377061Y73914D03*
D100*
X1350264Y73914D03*
D61*
X1321181Y73914D03*
D29*
X1302893Y73914D03*
D52*
X1288415Y73914D03*
D29*
X1275715Y73914D03*
X1252601Y73914D03*
X1238377Y73914D03*
D61*
X1220343Y73914D03*
D72*
X1506347Y74168D03*
D73*
X1485900Y74168D03*
D49*
X1463802Y74168D03*
D80*
X1426464Y74168D03*
D38*
X1393825Y74168D03*
D29*
X1377061Y74168D03*
D80*
X1350264Y74168D03*
D61*
X1321181Y74168D03*
D29*
X1302893Y74168D03*
D163*
X1288288Y74168D03*
D29*
X1275715Y74168D03*
X1252601Y74168D03*
X1238377Y74168D03*
D61*
X1220343Y74168D03*
D164*
X1506347Y74422D03*
D57*
X1485646Y74422D03*
D46*
X1463929Y74422D03*
D66*
X1426591Y74422D03*
D33*
X1393698Y74422D03*
D29*
X1377061Y74422D03*
D66*
X1350391Y74422D03*
D61*
X1321181Y74422D03*
D29*
X1302893Y74422D03*
D96*
X1287907Y74422D03*
D29*
X1275715Y74422D03*
X1252601Y74422D03*
X1238377Y74422D03*
D61*
X1220343Y74422D03*
D69*
X1506474Y74676D03*
D51*
X1485265Y74676D03*
D46*
X1463929Y74676D03*
D163*
X1393444Y74676D03*
D29*
X1377061Y74676D03*
X1324991Y74676D03*
D165*
X1287272Y74676D03*
D29*
X1224153Y74676D03*
D67*
X1506474Y74930D03*
D49*
X1485138Y74930D03*
D46*
X1464183Y74930D03*
D29*
X1377061Y74930D03*
X1324991Y74930D03*
X1224153Y74930D03*
D67*
X1506474Y75184D03*
D41*
X1484884Y75184D03*
X1464310Y75184D03*
D29*
X1377061Y75184D03*
X1324991Y75184D03*
X1224153Y75184D03*
D67*
X1506474Y75438D03*
D85*
X1484884Y75438D03*
D42*
X1464437Y75438D03*
D29*
X1377061Y75438D03*
X1324991Y75438D03*
X1224153Y75438D03*
D63*
X1506474Y75692D03*
D83*
X1484630Y75692D03*
D85*
X1464564Y75692D03*
D29*
X1377061Y75692D03*
X1324991Y75692D03*
X1224153Y75692D03*
D63*
X1506220Y75946D03*
D36*
X1484630Y75946D03*
D42*
X1464691Y75946D03*
D29*
X1377061Y75946D03*
X1324991Y75946D03*
X1224153Y75946D03*
D63*
X1506220Y76200D03*
D38*
X1484503Y76200D03*
D89*
X1464945Y76200D03*
D29*
X1377061Y76200D03*
X1324991Y76200D03*
X1224153Y76200D03*
D91*
X1506093Y76454D03*
D39*
X1484376Y76454D03*
D83*
X1465072Y76454D03*
D29*
X1377061Y76454D03*
X1324991Y76454D03*
X1224153Y76454D03*
D91*
X1506093Y76708D03*
D31*
X1484376Y76708D03*
D83*
X1465326Y76708D03*
D29*
X1377061Y76708D03*
X1324991Y76708D03*
X1224153Y76708D03*
D91*
X1505839Y76962D03*
D28*
X1484249Y76962D03*
D43*
X1465453Y76962D03*
D29*
X1377061Y76962D03*
X1324991Y76962D03*
X1224153Y76962D03*
D59*
X1505712Y77216D03*
D32*
X1484122Y77216D03*
D43*
X1465707Y77216D03*
D29*
X1377061Y77216D03*
X1324991Y77216D03*
X1224153Y77216D03*
D59*
X1505712Y77470D03*
D33*
X1484122Y77470D03*
D36*
X1465834Y77470D03*
D29*
X1377061Y77470D03*
X1324991Y77470D03*
X1224153Y77470D03*
D59*
X1505458Y77724D03*
D34*
X1483995Y77724D03*
D90*
X1465961Y77724D03*
D29*
X1377061Y77724D03*
X1324991Y77724D03*
X1224153Y77724D03*
D59*
X1505458Y77978D03*
D30*
X1483995Y77978D03*
D90*
X1466215Y77978D03*
D35*
X1455039Y77978D03*
D29*
X1377061Y77978D03*
D32*
X1324864Y77978D03*
D29*
X1224153Y77978D03*
D59*
X1505204Y78232D03*
D68*
X1483868Y78232D03*
D38*
X1466469Y78232D03*
D166*
X1454912Y78232D03*
D29*
X1377061Y78232D03*
D32*
X1324864Y78232D03*
D29*
X1224153Y78232D03*
D61*
X1505077Y78486D03*
D65*
X1483741Y78486D03*
D39*
X1466850Y78486D03*
D68*
X1454912Y78486D03*
D29*
X1377061Y78486D03*
D32*
X1324864Y78486D03*
D29*
X1224153Y78486D03*
D61*
X1504823Y78740D03*
D62*
X1483741Y78740D03*
D37*
X1466977Y78740D03*
D29*
X1454785Y78740D03*
X1377061Y78740D03*
D28*
X1324737Y78740D03*
D29*
X1224153Y78740D03*
D61*
X1504823Y78994D03*
D159*
X1483614Y78994D03*
D37*
X1467231Y78994D03*
D38*
X1454785Y78994D03*
D29*
X1377061Y78994D03*
D31*
X1324610Y78994D03*
D29*
X1224153Y78994D03*
D61*
X1504569Y79248D03*
D58*
X1483487Y79248D03*
D106*
X1460373Y79248D03*
D29*
X1377061Y79248D03*
D61*
X1321181Y79248D03*
D29*
X1224153Y79248D03*
D61*
X1504315Y79502D03*
D138*
X1483487Y79502D03*
D109*
X1460246Y79502D03*
D29*
X1377061Y79502D03*
D61*
X1321181Y79502D03*
D29*
X1224153Y79502D03*
D61*
X1504061Y79756D03*
D138*
X1483487Y79756D03*
D111*
X1459992Y79756D03*
D29*
X1377061Y79756D03*
D61*
X1321181Y79756D03*
D29*
X1238377Y79756D03*
X1224153Y79756D03*
D64*
X1503934Y80010D03*
D166*
X1483360Y80010D03*
D115*
X1459865Y80010D03*
D29*
X1377061Y80010D03*
D64*
X1321054Y80010D03*
D29*
X1238377Y80010D03*
D61*
X1503807Y80264D03*
D52*
X1483233Y80264D03*
D118*
X1459738Y80264D03*
D29*
X1377061Y80264D03*
D64*
X1321054Y80264D03*
D29*
X1238377Y80264D03*
D61*
X1503553Y80518D03*
D163*
X1483106Y80518D03*
D121*
X1459484Y80518D03*
D29*
X1377061Y80518D03*
D64*
X1321054Y80518D03*
D29*
X1238377Y80518D03*
D61*
X1503299Y80772D03*
D47*
X1483233Y80772D03*
D126*
X1459357Y80772D03*
D29*
X1377061Y80772D03*
D64*
X1321054Y80772D03*
D29*
X1238377Y80772D03*
D61*
X1503045Y81026D03*
D26*
X1483106Y81026D03*
D131*
X1459230Y81026D03*
D29*
X1377061Y81026D03*
D64*
X1321054Y81026D03*
D29*
X1238377Y81026D03*
D64*
X1502918Y81280D03*
D26*
X1483106Y81280D03*
D136*
X1458976Y81280D03*
D29*
X1377061Y81280D03*
D64*
X1321054Y81280D03*
D29*
X1238377Y81280D03*
D64*
X1502664Y81534D03*
D96*
X1482979Y81534D03*
D135*
X1458976Y81534D03*
D29*
X1377061Y81534D03*
D55*
X1320927Y81534D03*
D29*
X1238377Y81534D03*
D64*
X1502410Y81788D03*
D96*
X1482979Y81788D03*
D129*
X1458849Y81788D03*
D29*
X1377061Y81788D03*
D55*
X1320927Y81788D03*
D29*
X1238377Y81788D03*
D64*
X1502156Y82042D03*
D44*
X1482852Y82042D03*
D124*
X1458849Y82042D03*
D29*
X1377061Y82042D03*
D55*
X1320927Y82042D03*
D29*
X1238377Y82042D03*
D55*
X1501775Y82296D03*
D44*
X1482852Y82296D03*
D119*
X1458849Y82296D03*
D29*
X1377061Y82296D03*
D55*
X1320927Y82296D03*
D29*
X1238377Y82296D03*
D55*
X1501521Y82550D03*
D167*
X1482725Y82550D03*
D84*
X1458722Y82550D03*
D29*
X1377061Y82550D03*
D73*
X1320800Y82550D03*
D29*
X1238377Y82550D03*
D55*
X1501267Y82804D03*
D167*
X1482725Y82804D03*
D86*
X1458595Y82804D03*
D29*
X1377061Y82804D03*
D73*
X1320800Y82804D03*
D29*
X1238377Y82804D03*
D55*
X1500759Y83058D03*
D40*
X1482598Y83058D03*
D168*
X1458468Y83058D03*
D29*
X1377061Y83058D03*
D60*
X1320673Y83058D03*
D29*
X1238377Y83058D03*
D55*
X1500505Y83312D03*
D167*
X1482471Y83312D03*
D169*
X1458595Y83312D03*
D29*
X1377061Y83312D03*
D60*
X1320673Y83312D03*
D29*
X1238377Y83312D03*
D55*
X1500251Y83566D03*
D167*
X1482471Y83566D03*
D170*
X1458468Y83566D03*
D29*
X1377061Y83566D03*
D60*
X1320673Y83566D03*
D29*
X1238377Y83566D03*
D73*
X1499870Y83820D03*
D44*
X1482344Y83820D03*
D171*
X1458468Y83820D03*
D29*
X1377061Y83820D03*
D53*
X1320546Y83820D03*
D29*
X1238377Y83820D03*
D73*
X1499362Y84074D03*
D44*
X1482344Y84074D03*
D172*
X1458595Y84074D03*
D29*
X1377061Y84074D03*
D53*
X1320546Y84074D03*
D29*
X1238377Y84074D03*
D60*
X1498981Y84328D03*
D26*
X1482090Y84328D03*
D173*
X1458595Y84328D03*
D29*
X1377061Y84328D03*
D56*
X1320419Y84328D03*
D29*
X1238377Y84328D03*
D60*
X1498473Y84582D03*
D174*
X1462151Y84582D03*
D29*
X1377061Y84582D03*
D57*
X1320292Y84582D03*
D29*
X1238377Y84582D03*
D53*
X1497838Y84836D03*
D175*
X1462024Y84836D03*
D29*
X1377061Y84836D03*
D48*
X1320165Y84836D03*
D29*
X1238377Y84836D03*
D53*
X1497330Y85090D03*
D176*
X1461897Y85090D03*
D29*
X1377061Y85090D03*
D48*
X1320165Y85090D03*
D29*
X1238377Y85090D03*
D56*
X1496695Y85344D03*
D177*
X1461897Y85344D03*
D29*
X1377061Y85344D03*
D51*
X1319911Y85344D03*
D29*
X1238377Y85344D03*
D57*
X1496060Y85598D03*
D178*
X1461897Y85598D03*
D29*
X1377061Y85598D03*
D87*
X1319784Y85598D03*
D29*
X1238377Y85598D03*
D179*
X1472184Y85852D03*
D29*
X1377061Y85852D03*
D45*
X1319657Y85852D03*
D29*
X1238377Y85852D03*
D180*
X1472692Y86106D03*
D29*
X1377061Y86106D03*
D49*
X1319530Y86106D03*
D29*
X1238377Y86106D03*
D181*
X1473073Y86360D03*
D29*
X1377061Y86360D03*
D41*
X1319276Y86360D03*
D29*
X1238377Y86360D03*
D182*
X1473454Y86614D03*
D29*
X1377061Y86614D03*
D85*
X1319022Y86614D03*
D29*
X1238377Y86614D03*
D183*
X1473581Y86868D03*
D29*
X1377061Y86868D03*
D83*
X1318768Y86868D03*
D29*
X1238377Y86868D03*
D184*
X1473708Y87122D03*
D29*
X1377061Y87122D03*
D38*
X1318133Y87122D03*
D29*
X1238377Y87122D03*
D185*
X1473835Y87376D03*
D29*
X1377061Y87376D03*
D30*
X1316863Y87376D03*
D29*
X1238377Y87376D03*
D186*
X1473835Y87630D03*
D187*
X1474089Y87884D03*
D188*
X1473962Y88138D03*
D156*
X1493901Y88392D03*
D88*
X1450848Y88392D03*
D160*
X1494409Y88646D03*
D81*
X1450213Y88646D03*
D161*
X1495044Y88900D03*
D122*
X1449578Y88900D03*
D160*
X1495425Y89154D03*
D124*
X1448943Y89154D03*
D161*
X1495806Y89408D03*
D129*
X1448435Y89408D03*
D161*
X1496060Y89662D03*
D129*
X1447927Y89662D03*
D160*
X1496187Y89916D03*
D130*
X1447546Y89916D03*
D158*
X1496568Y90170D03*
D130*
X1447038Y90170D03*
D156*
X1496695Y90424D03*
D132*
X1446657Y90424D03*
D155*
X1496822Y90678D03*
D132*
X1446403Y90678D03*
D154*
X1496822Y90932D03*
D130*
X1446022Y90932D03*
D115*
X1504315Y91186D03*
D37*
X1481709Y91186D03*
D130*
X1445768Y91186D03*
D110*
X1505077Y91440D03*
D31*
X1481328Y91440D03*
D129*
X1445387Y91440D03*
D108*
X1505585Y91694D03*
D31*
X1481074Y91694D03*
D129*
X1445133Y91694D03*
D107*
X1505966Y91948D03*
D31*
X1480820Y91948D03*
D127*
X1445006Y91948D03*
D105*
X1506474Y92202D03*
D37*
X1480693Y92202D03*
D127*
X1444752Y92202D03*
D105*
X1506982Y92456D03*
D38*
X1480439Y92456D03*
D122*
X1444498Y92456D03*
D103*
X1507236Y92710D03*
D82*
X1480312Y92710D03*
D79*
X1444498Y92710D03*
D113*
X1507617Y92964D03*
D36*
X1480058Y92964D03*
D84*
X1444244Y92964D03*
D102*
X1507998Y93218D03*
D89*
X1479931Y93218D03*
D86*
X1444117Y93218D03*
D102*
X1508252Y93472D03*
D41*
X1479550Y93472D03*
D189*
X1444117Y93472D03*
D101*
X1508633Y93726D03*
D87*
X1479296Y93726D03*
D169*
X1444117Y93726D03*
D100*
X1508760Y93980D03*
D48*
X1478915Y93980D03*
D170*
X1444244Y93980D03*
D100*
X1509014Y94234D03*
D73*
X1478534Y94234D03*
D190*
X1444498Y94234D03*
D99*
X1509395Y94488D03*
D66*
X1477645Y94488D03*
D191*
X1444879Y94488D03*
D99*
X1509649Y94742D03*
D192*
X1456436Y94742D03*
D99*
X1509903Y94996D03*
D163*
X1484376Y94996D03*
D193*
X1452372Y94996D03*
D194*
X1510030Y95250D03*
D47*
X1484757Y95250D03*
D193*
X1452118Y95250D03*
D194*
X1510284Y95504D03*
D163*
X1485138Y95504D03*
D195*
X1451991Y95504D03*
D194*
X1510538Y95758D03*
D52*
X1485265Y95758D03*
D195*
X1451737Y95758D03*
D194*
X1510792Y96012D03*
D52*
X1485519Y96012D03*
D195*
X1451483Y96012D03*
D98*
X1510919Y96266D03*
D166*
X1485646Y96266D03*
D196*
X1451356Y96266D03*
D98*
X1511173Y96520D03*
D166*
X1485900Y96520D03*
D196*
X1451102Y96520D03*
D194*
X1511300Y96774D03*
D54*
X1486154Y96774D03*
D196*
X1451102Y96774D03*
D98*
X1511427Y97028D03*
D54*
X1486408Y97028D03*
D197*
X1450975Y97028D03*
D98*
X1511681Y97282D03*
D159*
X1486662Y97282D03*
D197*
X1450975Y97282D03*
D194*
X1511808Y97536D03*
D62*
X1486789Y97536D03*
D198*
X1450848Y97536D03*
D99*
X1511935Y97790D03*
D65*
X1487043Y97790D03*
D198*
X1450848Y97790D03*
D99*
X1512189Y98044D03*
D68*
X1487424Y98044D03*
D199*
X1450721Y98044D03*
D99*
X1512189Y98298D03*
D70*
X1487678Y98298D03*
D199*
X1450721Y98298D03*
D100*
X1512316Y98552D03*
D33*
X1487932Y98552D03*
D200*
X1450594Y98552D03*
D101*
X1512189Y98806D03*
D28*
X1488313Y98806D03*
D200*
X1450594Y98806D03*
D113*
X1512189Y99060D03*
D39*
X1488694Y99060D03*
D200*
X1450594Y99060D03*
D104*
X1512189Y99314D03*
D90*
X1489075Y99314D03*
D201*
X1450594Y99314D03*
D107*
X1512062Y99568D03*
D89*
X1489583Y99568D03*
D201*
X1450594Y99568D03*
D153*
X1503807Y99822D03*
D201*
X1450594Y99822D03*
D152*
X1503934Y100076D03*
D202*
X1450594Y100076D03*
D203*
X1504061Y100330D03*
D204*
X1450721Y100330D03*
D151*
X1504188Y100584D03*
D204*
X1450721Y100584D03*
D151*
X1504188Y100838D03*
D205*
X1450848Y100838D03*
D150*
X1504315Y101092D03*
D206*
X1450848Y101092D03*
D207*
X1504442Y101346D03*
D208*
X1451102Y101346D03*
D149*
X1504569Y101600D03*
D209*
X1451356Y101600D03*
D149*
X1504569Y101854D03*
D210*
X1451610Y101854D03*
D211*
X1504696Y102108D03*
D212*
X1451864Y102108D03*
D148*
X1504823Y102362D03*
D213*
X1452245Y102362D03*
D147*
X1504823Y102616D03*
D177*
X1452753Y102616D03*
D147*
X1504823Y102870D03*
D214*
X1453007Y102870D03*
D215*
X1504950Y103124D03*
D216*
X1453388Y103124D03*
D217*
X1505077Y103378D03*
X1453769Y103378D03*
D218*
X1505204Y103632D03*
D148*
X1454277Y103632D03*
D218*
X1505204Y103886D03*
D149*
X1454531Y103886D03*
D216*
X1505204Y104140D03*
D151*
X1454912Y104140D03*
D216*
X1505204Y104394D03*
D153*
X1455293Y104394D03*
D174*
X1505331Y104648D03*
D155*
X1455674Y104648D03*
D214*
X1505331Y104902D03*
D161*
X1456182Y104902D03*
D219*
X1505458Y105156D03*
D33*
X1471168Y105156D03*
D123*
X1451229Y105156D03*
D176*
X1505585Y105410D03*
D29*
X1471041Y105410D03*
D117*
X1451483Y105410D03*
D177*
X1505585Y105664D03*
D32*
X1470914Y105664D03*
D112*
X1451737Y105664D03*
D177*
X1505585Y105918D03*
D28*
X1470787Y105918D03*
D106*
X1451991Y105918D03*
D220*
X1505712Y106172D03*
D28*
X1470787Y106172D03*
D113*
X1452245Y106172D03*
D178*
X1505839Y106426D03*
D31*
X1470660Y106426D03*
D99*
X1452499Y106426D03*
D221*
X1505712Y106680D03*
D39*
X1470660Y106680D03*
D78*
X1452499Y106680D03*
D213*
X1505839Y106934D03*
D38*
X1470533Y106934D03*
D72*
X1452753Y106934D03*
D222*
X1505839Y107188D03*
D82*
X1470406Y107188D03*
D66*
X1453007Y107188D03*
D222*
X1505839Y107442D03*
D82*
X1470406Y107442D03*
D59*
X1453134Y107442D03*
D223*
X1505839Y107696D03*
D82*
X1470406Y107696D03*
D60*
X1453261Y107696D03*
D210*
X1505966Y107950D03*
D90*
X1470279Y107950D03*
D50*
X1453388Y107950D03*
D209*
X1505966Y108204D03*
D43*
X1470279Y108204D03*
D42*
X1453515Y108204D03*
D224*
X1506093Y108458D03*
D43*
X1470279Y108458D03*
D36*
X1453642Y108458D03*
D208*
X1505966Y108712D03*
D89*
X1470279Y108712D03*
D32*
X1453642Y108712D03*
D206*
X1505966Y108966D03*
D85*
X1470152Y108966D03*
D65*
X1453769Y108966D03*
D205*
X1505966Y109220D03*
D42*
X1470279Y109220D03*
D165*
X1453896Y109220D03*
D204*
X1505839Y109474D03*
D41*
X1470406Y109474D03*
D225*
X1512189Y109728D03*
D82*
X1485646Y109728D03*
D46*
X1470279Y109728D03*
D225*
X1512443Y109982D03*
D123*
X1477391Y109982D03*
D225*
X1512697Y110236D03*
D126*
X1477391Y110236D03*
D225*
X1512697Y110490D03*
D126*
X1477391Y110490D03*
D225*
X1512951Y110744D03*
D128*
X1477518Y110744D03*
D225*
X1513205Y110998D03*
D134*
X1477391Y110998D03*
D225*
X1513205Y111252D03*
D134*
X1477391Y111252D03*
D225*
X1513459Y111506D03*
D131*
X1477518Y111506D03*
D225*
X1513713Y111760D03*
D133*
X1477391Y111760D03*
D162*
X1513840Y112014D03*
D133*
X1477391Y112014D03*
D162*
X1514094Y112268D03*
D133*
X1477391Y112268D03*
D226*
X1514221Y112522D03*
D136*
X1477518Y112522D03*
D227*
X1514348Y112776D03*
D136*
X1477518Y112776D03*
D227*
X1514602Y113030D03*
D136*
X1477518Y113030D03*
D191*
X1514729Y113284D03*
D137*
X1477391Y113284D03*
D228*
X1514856Y113538D03*
D137*
X1477391Y113538D03*
D229*
X1515110Y113792D03*
D135*
X1477518Y113792D03*
D230*
X1515237Y114046D03*
D135*
X1477518Y114046D03*
D231*
X1515364Y114300D03*
D135*
X1477518Y114300D03*
D172*
X1515491Y114554D03*
D135*
X1477518Y114554D03*
D232*
X1515745Y114808D03*
D132*
X1477391Y114808D03*
D170*
X1515872Y115062D03*
D132*
X1477391Y115062D03*
D233*
X1515999Y115316D03*
D132*
X1477391Y115316D03*
D169*
X1516253Y115570D03*
D132*
X1477391Y115570D03*
D234*
X1516507Y115824D03*
D132*
X1477391Y115824D03*
D88*
X1516634Y116078D03*
D132*
X1477391Y116078D03*
D79*
X1516888Y116332D03*
D132*
X1477391Y116332D03*
D122*
X1517142Y116586D03*
D132*
X1477391Y116586D03*
D130*
X1517396Y116840D03*
D132*
X1477391Y116840D03*
D133*
X1517777Y117094D03*
D132*
X1477391Y117094D03*
D126*
X1518031Y117348D03*
D132*
X1477391Y117348D03*
D117*
X1518285Y117602D03*
D132*
X1477391Y117602D03*
D109*
X1518666Y117856D03*
D132*
X1477391Y117856D03*
D49*
X1522730Y118110D03*
D132*
X1477391Y118110D03*
D135*
X1477264Y118364D03*
X1477264Y118618D03*
X1477264Y118872D03*
X1477264Y119126D03*
X1477264Y119380D03*
D137*
X1477391Y119634D03*
D136*
X1477264Y119888D03*
X1477264Y120142D03*
X1477264Y120396D03*
D133*
X1477137Y120650D03*
X1477137Y120904D03*
X1477137Y121158D03*
D131*
X1477264Y121412D03*
D134*
X1477137Y121666D03*
X1477137Y121920D03*
X1477137Y122174D03*
D128*
X1477010Y122428D03*
X1477010Y122682D03*
D126*
X1477137Y122936D03*
D125*
X1477010Y123190D03*
X1477010Y123444D03*
D123*
X1476883Y123698D03*
D121*
X1477010Y123952D03*
X1477010Y124206D03*
D120*
X1476883Y124460D03*
D118*
X1477010Y124714D03*
D117*
X1476883Y124968D03*
X1476883Y125222D03*
D115*
X1476883Y125476D03*
X1476883Y125730D03*
D114*
X1476756Y125984D03*
X1476756Y126238D03*
D111*
X1476756Y126492D03*
X1476756Y126746D03*
D110*
X1476629Y127000D03*
D109*
X1476756Y127254D03*
D108*
X1476629Y127508D03*
D107*
X1476502Y127762D03*
D105*
X1476502Y128016D03*
X1476502Y128270D03*
D103*
X1476502Y128524D03*
D113*
X1476375Y128778D03*
X1476375Y129032D03*
D102*
X1476248Y129286D03*
D100*
X1476248Y129540D03*
X1476248Y129794D03*
D99*
X1476121Y130048D03*
D98*
X1476121Y130302D03*
D97*
X1475994Y130556D03*
X1475994Y130810D03*
D80*
X1475994Y131064D03*
D76*
X1475867Y131318D03*
D74*
X1475740Y131572D03*
D75*
X1475867Y131826D03*
D77*
X1475740Y132080D03*
D72*
X1475613Y132334D03*
D71*
X1475740Y132588D03*
D164*
X1475613Y132842D03*
D69*
X1475486Y133096D03*
D66*
X1475359Y133350D03*
D67*
X1475486Y133604D03*
D93*
X1475359Y133858D03*
D63*
X1475232Y134112D03*
D91*
X1475359Y134366D03*
D59*
X1475232Y134620D03*
D61*
X1475105Y134874D03*
D64*
X1475232Y135128D03*
D55*
X1475105Y135382D03*
D60*
X1475105Y135636D03*
D53*
X1474978Y135890D03*
D56*
X1474851Y136144D03*
X1474851Y136398D03*
D48*
X1474851Y136652D03*
D50*
X1474724Y136906D03*
X1474724Y137160D03*
D87*
X1474724Y137414D03*
D45*
X1474597Y137668D03*
D49*
X1474470Y137922D03*
D46*
X1474597Y138176D03*
D41*
X1474470Y138430D03*
X1474470Y138684D03*
D85*
X1474470Y138938D03*
D89*
X1474343Y139192D03*
D83*
X1474216Y139446D03*
X1474216Y139700D03*
D36*
X1474216Y139954D03*
D90*
X1474089Y140208D03*
D82*
X1473962Y140462D03*
D38*
X1474089Y140716D03*
D39*
X1473962Y140970D03*
D37*
X1473835Y141224D03*
D31*
X1473962Y141478D03*
D28*
X1473835Y141732D03*
D32*
X1473708Y141986D03*
D33*
X1473708Y142240D03*
X1473708Y142494D03*
D70*
X1473708Y142748D03*
D30*
X1473581Y143002D03*
X1473581Y143256D03*
D68*
X1473454Y143510D03*
D157*
X1473454Y143764D03*
D62*
X1473327Y144018D03*
X1473327Y144272D03*
D58*
X1473327Y144526D03*
D54*
X1473200Y144780D03*
D166*
X1473200Y145034D03*
X1473200Y145288D03*
D163*
X1473200Y145542D03*
D26*
X1473200Y145796D03*
D96*
X1473073Y146050D03*
D167*
X1473073Y146304D03*
D165*
X1473200Y146558D03*
D27*
X1473200Y146812D03*
D235*
X1473327Y147066D03*
M02*
