G04 EAGLE Gerber RS-274X export*
G75*
%MOMM*%
%FSLAX34Y34*%
%LPD*%
%INTop Copper*%
%IPPOS*%
%AMOC8*
5,1,8,0,0,1.08239X$1,22.5*%
G01*
%ADD10R,9.398000X0.152400*%
%ADD11R,9.398000X0.203200*%
%ADD12R,9.398000X0.254000*%
%ADD13R,9.398000X0.304800*%
%ADD14R,9.398000X0.457200*%
%ADD15R,9.398000X0.609600*%
%ADD16R,9.398000X0.762000*%
%ADD17R,9.398000X1.016000*%
%ADD18R,0.300000X3.000000*%
%ADD19R,0.200000X1.000000*%
%ADD20R,0.200000X2.000000*%
%ADD21R,0.300000X3.500000*%
%ADD22R,0.300000X1.500000*%
%ADD23R,0.300000X2.500000*%
%ADD24R,0.300000X0.300000*%
%ADD25R,0.600000X0.500000*%
%ADD26R,0.900000X0.600000*%
%ADD27R,1.300000X1.200000*%
%ADD28R,1.600000X0.900000*%
%ADD29R,2.800000X1.000000*%
%ADD30R,1.600000X3.000000*%
%ADD31R,4.826000X5.715000*%
%ADD32R,12.200000X9.750000*%
%ADD33R,1.600000X3.500000*%
%ADD34R,1.219200X2.235200*%
%ADD35R,3.600000X2.200000*%
%ADD36R,0.580000X1.200000*%
%ADD37R,2.000000X2.000000*%
%ADD38R,0.550000X1.200000*%
%ADD39R,0.800000X0.900000*%
%ADD40R,0.400000X0.750000*%
%ADD41R,1.200000X1.800000*%
%ADD42R,1.200000X1.400000*%
%ADD43R,0.900000X1.050000*%
%ADD44R,5.334000X1.930400*%
%ADD45R,1.000000X1.400000*%
%ADD46R,1.200000X0.800000*%
%ADD47R,0.350000X0.350000*%
%ADD48R,1.470000X1.270000*%
%ADD49R,2.400000X2.400000*%
%ADD50R,3.800000X2.800000*%
%ADD51R,2.100000X1.400000*%
%ADD52R,0.830000X0.630000*%
%ADD53R,1.800000X1.400000*%
%ADD54R,1.600000X0.350000*%
%ADD55R,2.209800X0.609600*%
%ADD56R,0.800000X0.250000*%
%ADD57R,0.250000X0.800000*%
%ADD58R,1.143000X0.254000*%
%ADD59R,0.254000X1.143000*%


D10*
X62230Y177800D03*
D11*
X62230Y162560D03*
D12*
X62230Y147320D03*
D13*
X62230Y132080D03*
D14*
X62230Y116840D03*
D15*
X62230Y101346D03*
D16*
X62230Y86360D03*
D17*
X62230Y71120D03*
D18*
X12000Y15000D03*
D19*
X22000Y5000D03*
X32000Y5000D03*
X42000Y5000D03*
D20*
X62000Y10000D03*
D19*
X52000Y5000D03*
X72000Y5000D03*
X82000Y5000D03*
X92000Y5000D03*
X102000Y5000D03*
D18*
X112000Y15000D03*
X112000Y15000D03*
D19*
X122000Y5000D03*
X132000Y5000D03*
X142000Y5000D03*
D20*
X162000Y10000D03*
D19*
X152000Y5000D03*
X172000Y5000D03*
X182000Y5000D03*
X192000Y5000D03*
X202000Y5000D03*
D18*
X212000Y15000D03*
X212000Y15000D03*
D19*
X222000Y5000D03*
X232000Y5000D03*
X242000Y5000D03*
D20*
X262000Y10000D03*
D19*
X252000Y5000D03*
X272000Y5000D03*
X282000Y5000D03*
X292000Y5000D03*
X302000Y5000D03*
D18*
X312000Y15000D03*
X312000Y15000D03*
D19*
X322000Y5000D03*
X332000Y5000D03*
X342000Y5000D03*
D20*
X362000Y10000D03*
D19*
X352000Y5000D03*
X372000Y5000D03*
X382000Y5000D03*
X392000Y5000D03*
X402000Y5000D03*
D18*
X412000Y15000D03*
X412000Y15000D03*
D19*
X422000Y5000D03*
X432000Y5000D03*
X442000Y5000D03*
D20*
X462000Y10000D03*
D19*
X452000Y5000D03*
X472000Y5000D03*
X482000Y5000D03*
X492000Y5000D03*
X502000Y5000D03*
D18*
X512000Y15000D03*
X512000Y15000D03*
D19*
X522000Y5000D03*
X532000Y5000D03*
X542000Y5000D03*
D20*
X562000Y10000D03*
D19*
X552000Y5000D03*
X572000Y5000D03*
X582000Y5000D03*
X592000Y5000D03*
X602000Y5000D03*
D18*
X612000Y15000D03*
X612000Y15000D03*
D19*
X622000Y5000D03*
X632000Y5000D03*
X642000Y5000D03*
D20*
X662000Y10000D03*
D19*
X652000Y5000D03*
X672000Y5000D03*
X682000Y5000D03*
X692000Y5000D03*
X702000Y5000D03*
D18*
X712000Y15000D03*
X712000Y15000D03*
D19*
X722000Y5000D03*
X732000Y5000D03*
X742000Y5000D03*
D20*
X762000Y10000D03*
D19*
X752000Y5000D03*
X772000Y5000D03*
X782000Y5000D03*
X792000Y5000D03*
X802000Y5000D03*
D18*
X812000Y15000D03*
X812000Y15000D03*
D19*
X822000Y5000D03*
X832000Y5000D03*
X842000Y5000D03*
D20*
X862000Y10000D03*
D19*
X852000Y5000D03*
X872000Y5000D03*
X882000Y5000D03*
X892000Y5000D03*
X902000Y5000D03*
D18*
X912000Y15000D03*
X912000Y15000D03*
D19*
X922000Y5000D03*
X932000Y5000D03*
X942000Y5000D03*
D20*
X962000Y10000D03*
D19*
X952000Y5000D03*
X972000Y5000D03*
X982000Y5000D03*
X992000Y5000D03*
X1002000Y5000D03*
D18*
X1012000Y15000D03*
X1012000Y15000D03*
D19*
X1022000Y5000D03*
X1032000Y5000D03*
X1042000Y5000D03*
D20*
X1062000Y10000D03*
D19*
X1052000Y5000D03*
X1072000Y5000D03*
X1082000Y5000D03*
X1092000Y5000D03*
X1102000Y5000D03*
D18*
X1112000Y15000D03*
X1112000Y15000D03*
D19*
X1122000Y5000D03*
X1132000Y5000D03*
X1142000Y5000D03*
D20*
X1162000Y10000D03*
D19*
X1152000Y5000D03*
X1172000Y5000D03*
X1182000Y5000D03*
X1192000Y5000D03*
X1202000Y5000D03*
D18*
X1212000Y15000D03*
X1212000Y15000D03*
D19*
X1222000Y5000D03*
X1232000Y5000D03*
X1242000Y5000D03*
D20*
X1262000Y10000D03*
D19*
X1252000Y5000D03*
X1272000Y5000D03*
X1282000Y5000D03*
X1292000Y5000D03*
X1302000Y5000D03*
D18*
X1312000Y15000D03*
X1312000Y15000D03*
D19*
X1322000Y5000D03*
X1332000Y5000D03*
X1342000Y5000D03*
D20*
X1362000Y10000D03*
D19*
X1352000Y5000D03*
X1372000Y5000D03*
X1382000Y5000D03*
X1392000Y5000D03*
X1402000Y5000D03*
D18*
X1412000Y15000D03*
X1412000Y15000D03*
D19*
X1422000Y5000D03*
X1432000Y5000D03*
X1442000Y5000D03*
D20*
X1462000Y10000D03*
D19*
X1452000Y5000D03*
X1472000Y5000D03*
X1482000Y5000D03*
X1492000Y5000D03*
X1502000Y5000D03*
D18*
X1512000Y15000D03*
D21*
X12700Y236500D03*
D22*
X44450Y246500D03*
X76200Y246500D03*
X107950Y246500D03*
D23*
X139700Y241500D03*
D22*
X171450Y246500D03*
X203200Y246500D03*
X234950Y246500D03*
D21*
X266700Y236500D03*
X266700Y236500D03*
D22*
X298450Y246500D03*
X330200Y246500D03*
X361950Y246500D03*
D23*
X393700Y241500D03*
D22*
X425450Y246500D03*
X457200Y246500D03*
X488950Y246500D03*
D21*
X520700Y236500D03*
X520700Y236500D03*
D22*
X552450Y246500D03*
X584200Y246500D03*
X615950Y246500D03*
D23*
X647700Y241500D03*
D22*
X679450Y246500D03*
X711200Y246500D03*
X742950Y246500D03*
D21*
X774700Y236500D03*
X774700Y236500D03*
D22*
X806450Y246500D03*
X838200Y246500D03*
X869950Y246500D03*
D23*
X901700Y241500D03*
D22*
X933450Y246500D03*
X965200Y246500D03*
X996950Y246500D03*
D21*
X1028700Y236500D03*
X1028700Y236500D03*
D22*
X1060450Y246500D03*
X1092200Y246500D03*
X1123950Y246500D03*
D23*
X1155700Y241500D03*
D22*
X1187450Y246500D03*
X1219200Y246500D03*
X1250950Y246500D03*
D21*
X1282700Y236500D03*
X1282700Y236500D03*
D22*
X1314450Y246500D03*
X1346200Y246500D03*
X1377950Y246500D03*
D23*
X1409700Y241500D03*
D22*
X1441450Y246500D03*
X1473200Y246500D03*
X1504950Y246500D03*
D21*
X1536700Y236500D03*
D24*
X190500Y101648D03*
X190500Y107648D03*
D25*
X205740Y96600D03*
X205740Y106600D03*
D26*
X220980Y91052D03*
X220980Y106052D03*
D27*
X236220Y82210D03*
X236220Y103210D03*
D28*
X255778Y75670D03*
X255778Y104670D03*
D29*
X282956Y104154D03*
X282956Y74154D03*
X316230Y58280D03*
X316230Y104280D03*
D30*
X726500Y87870D03*
X772100Y87870D03*
D31*
X749300Y156850D03*
D32*
X850900Y162240D03*
D33*
X876300Y59490D03*
X825500Y59490D03*
D34*
X652526Y65532D03*
X675640Y65532D03*
X698754Y65532D03*
D35*
X675640Y127510D03*
D36*
X660640Y162340D03*
X675640Y162340D03*
X690640Y162340D03*
D37*
X675640Y193340D03*
D38*
X610260Y121619D03*
X619760Y121619D03*
X629260Y121619D03*
X629260Y147621D03*
X610260Y147621D03*
D39*
X619760Y198960D03*
X629260Y177960D03*
X610260Y177960D03*
D40*
X613260Y73030D03*
X619760Y73030D03*
X626260Y73030D03*
X626260Y89530D03*
X613260Y89530D03*
D41*
X957134Y148910D03*
X933134Y188910D03*
X933134Y148910D03*
X957134Y188910D03*
D42*
X998880Y166816D03*
X998880Y190816D03*
X1017880Y166816D03*
X1017880Y190816D03*
D43*
X1071784Y176962D03*
X1059784Y192862D03*
X1059784Y176962D03*
X1071784Y192862D03*
D44*
X955040Y78740D03*
X1051560Y78740D03*
D45*
X1055760Y127000D03*
X1072760Y127000D03*
D46*
X360680Y57532D03*
X360680Y73532D03*
D47*
X345440Y55226D03*
X345440Y68726D03*
D48*
X458724Y103034D03*
X458724Y60034D03*
D49*
X497840Y65630D03*
X497840Y109630D03*
D50*
X553466Y67394D03*
X553466Y141394D03*
D51*
X426720Y104804D03*
X426720Y60804D03*
D52*
X378460Y79572D03*
X378460Y56572D03*
D53*
X398780Y60470D03*
X398780Y94470D03*
D54*
X1099260Y100990D03*
X1099260Y94490D03*
X1099260Y87990D03*
X1099260Y81490D03*
X1099260Y74990D03*
X1099260Y68490D03*
X1099260Y61990D03*
X1099260Y55490D03*
X1158260Y55490D03*
X1158260Y61990D03*
X1158260Y68490D03*
X1158260Y74990D03*
X1158260Y81490D03*
X1158260Y87990D03*
X1158260Y94490D03*
X1158260Y100990D03*
D55*
X1185418Y87630D03*
X1185418Y74930D03*
X1185418Y62230D03*
X1185418Y49530D03*
X1237742Y49530D03*
X1237742Y62230D03*
X1237742Y74930D03*
X1237742Y87630D03*
D56*
X1107760Y159820D03*
X1107760Y154820D03*
X1107760Y149820D03*
X1107760Y144820D03*
X1107760Y139820D03*
X1107760Y134820D03*
D57*
X1115260Y127320D03*
X1120260Y127320D03*
X1125260Y127320D03*
X1130260Y127320D03*
X1135260Y127320D03*
X1140260Y127320D03*
D56*
X1147760Y134820D03*
X1147760Y139820D03*
X1147760Y144820D03*
X1147760Y149820D03*
X1147760Y154820D03*
X1147760Y159820D03*
D57*
X1140260Y167320D03*
X1135260Y167320D03*
X1130260Y167320D03*
X1125260Y167320D03*
X1120260Y167320D03*
X1115260Y167320D03*
D49*
X1127760Y147320D03*
D58*
X1176580Y157200D03*
X1176580Y152200D03*
X1176580Y147200D03*
X1176580Y142200D03*
X1176580Y137200D03*
X1176580Y132200D03*
X1176580Y127200D03*
X1176580Y122200D03*
D59*
X1194080Y104700D03*
X1199080Y104700D03*
X1204080Y104700D03*
X1209080Y104700D03*
X1214080Y104700D03*
X1219080Y104700D03*
X1224080Y104700D03*
X1229080Y104700D03*
D58*
X1246580Y122200D03*
X1246580Y127200D03*
X1246580Y132200D03*
X1246580Y137200D03*
X1246580Y142200D03*
X1246580Y147200D03*
X1246580Y152200D03*
X1246580Y157200D03*
D59*
X1229080Y174700D03*
X1224080Y174700D03*
X1219080Y174700D03*
X1214080Y174700D03*
X1209080Y174700D03*
X1204080Y174700D03*
X1199080Y174700D03*
X1194080Y174700D03*
D24*
X190500Y54912D03*
X190500Y60912D03*
D25*
X205740Y55960D03*
X205740Y65960D03*
D26*
X220980Y56254D03*
X220980Y71254D03*
D24*
X190500Y78280D03*
X190500Y84280D03*
M02*
